<svg width="1440" height="258" viewBox="0 0 1440 258" fill="none" xmlns="http://www.w3.org/2000/svg">
<path d="M142.14 107V83.24L143.688 84.932H136.452V81.8H145.704V107H142.14ZM161.512 107.288C159.544 107.288 157.78 106.784 156.22 105.776C154.684 104.768 153.46 103.304 152.548 101.384C151.66 99.464 151.216 97.136 151.216 94.4C151.216 91.664 151.66 89.336 152.548 87.416C153.46 85.496 154.684 84.032 156.22 83.024C157.78 82.016 159.544 81.512 161.512 81.512C163.456 81.512 165.208 82.016 166.768 83.024C168.328 84.032 169.552 85.496 170.44 87.416C171.328 89.336 171.772 91.664 171.772 94.4C171.772 97.136 171.328 99.464 170.44 101.384C169.552 103.304 168.328 104.768 166.768 105.776C165.208 106.784 163.456 107.288 161.512 107.288ZM161.512 104.084C162.832 104.084 163.984 103.724 164.968 103.004C165.976 102.284 166.756 101.204 167.308 99.764C167.884 98.324 168.172 96.536 168.172 94.4C168.172 92.264 167.884 90.476 167.308 89.036C166.756 87.596 165.976 86.516 164.968 85.796C163.984 85.076 162.832 84.716 161.512 84.716C160.192 84.716 159.028 85.076 158.02 85.796C157.012 86.516 156.22 87.596 155.644 89.036C155.092 90.476 154.816 92.264 154.816 94.4C154.816 96.536 155.092 98.324 155.644 99.764C156.22 101.204 157.012 102.284 158.02 103.004C159.028 103.724 160.192 104.084 161.512 104.084ZM185.524 107.288C183.556 107.288 181.792 106.784 180.232 105.776C178.696 104.768 177.472 103.304 176.56 101.384C175.672 99.464 175.228 97.136 175.228 94.4C175.228 91.664 175.672 89.336 176.56 87.416C177.472 85.496 178.696 84.032 180.232 83.024C181.792 82.016 183.556 81.512 185.524 81.512C187.468 81.512 189.22 82.016 190.78 83.024C192.34 84.032 193.564 85.496 194.452 87.416C195.34 89.336 195.784 91.664 195.784 94.4C195.784 97.136 195.34 99.464 194.452 101.384C193.564 103.304 192.34 104.768 190.78 105.776C189.22 106.784 187.468 107.288 185.524 107.288ZM185.524 104.084C186.844 104.084 187.996 103.724 188.98 103.004C189.988 102.284 190.768 101.204 191.32 99.764C191.896 98.324 192.184 96.536 192.184 94.4C192.184 92.264 191.896 90.476 191.32 89.036C190.768 87.596 189.988 86.516 188.98 85.796C187.996 85.076 186.844 84.716 185.524 84.716C184.204 84.716 183.04 85.076 182.032 85.796C181.024 86.516 180.232 87.596 179.656 89.036C179.104 90.476 178.828 92.264 178.828 94.4C178.828 96.536 179.104 98.324 179.656 99.764C180.232 101.204 181.024 102.284 182.032 103.004C183.04 103.724 184.204 104.084 185.524 104.084ZM206.722 102.284V86.516H209.746V102.284H206.722ZM200.17 95.84V92.996H216.298V95.84H200.17ZM237.163 107V84.932H228.523V81.8H249.367V84.932H240.727V107H237.163ZM252.327 107V87.92H255.639V93.104L255.315 91.808C255.843 90.488 256.731 89.48 257.979 88.784C259.227 88.088 260.763 87.74 262.587 87.74V91.088C262.443 91.064 262.299 91.052 262.155 91.052C262.035 91.052 261.915 91.052 261.795 91.052C259.947 91.052 258.483 91.604 257.403 92.708C256.323 93.812 255.783 95.408 255.783 97.496V107H252.327ZM275.12 107.216C273.488 107.216 272.048 106.916 270.8 106.316C269.576 105.716 268.616 104.804 267.92 103.58C267.248 102.332 266.912 100.772 266.912 98.9V87.92H270.368V98.504C270.368 100.376 270.812 101.78 271.7 102.716C272.612 103.652 273.884 104.12 275.516 104.12C276.716 104.12 277.76 103.88 278.648 103.4C279.536 102.896 280.22 102.176 280.7 101.24C281.18 100.28 281.42 99.128 281.42 97.784V87.92H284.876V107H281.6V101.852L282.14 103.22C281.516 104.492 280.58 105.476 279.332 106.172C278.084 106.868 276.68 107.216 275.12 107.216ZM296.928 107.216C295.344 107.216 293.832 107 292.392 106.568C290.976 106.136 289.86 105.608 289.044 104.984L290.484 102.248C291.3 102.8 292.308 103.268 293.508 103.652C294.708 104.036 295.932 104.228 297.18 104.228C298.788 104.228 299.94 104 300.636 103.544C301.356 103.088 301.716 102.452 301.716 101.636C301.716 101.036 301.5 100.568 301.068 100.232C300.636 99.896 300.06 99.644 299.34 99.476C298.644 99.308 297.864 99.164 297 99.044C296.136 98.9 295.272 98.732 294.408 98.54C293.544 98.324 292.752 98.036 292.032 97.676C291.312 97.292 290.736 96.776 290.304 96.128C289.872 95.456 289.656 94.568 289.656 93.464C289.656 92.312 289.98 91.304 290.628 90.44C291.276 89.576 292.188 88.916 293.364 88.46C294.564 87.98 295.98 87.74 297.612 87.74C298.86 87.74 300.12 87.896 301.392 88.208C302.688 88.496 303.744 88.916 304.56 89.468L303.084 92.204C302.22 91.628 301.32 91.232 300.384 91.016C299.448 90.8 298.512 90.692 297.576 90.692C296.064 90.692 294.936 90.944 294.192 91.448C293.448 91.928 293.076 92.552 293.076 93.32C293.076 93.968 293.292 94.472 293.724 94.832C294.18 95.168 294.756 95.432 295.452 95.624C296.172 95.816 296.964 95.984 297.828 96.128C298.692 96.248 299.556 96.416 300.42 96.632C301.284 96.824 302.064 97.1 302.76 97.46C303.48 97.82 304.056 98.324 304.488 98.972C304.944 99.62 305.172 100.484 305.172 101.564C305.172 102.716 304.836 103.712 304.164 104.552C303.492 105.392 302.544 106.052 301.32 106.532C300.096 106.988 298.632 107.216 296.928 107.216ZM316.043 107.216C314.123 107.216 312.635 106.7 311.579 105.668C310.523 104.636 309.995 103.16 309.995 101.24V83.744H313.451V101.096C313.451 102.128 313.703 102.92 314.207 103.472C314.735 104.024 315.479 104.3 316.439 104.3C317.519 104.3 318.419 104 319.139 103.4L320.219 105.884C319.691 106.34 319.055 106.676 318.311 106.892C317.591 107.108 316.835 107.216 316.043 107.216ZM306.755 90.764V87.92H318.923V90.764H306.755ZM332.26 107.216C330.22 107.216 328.42 106.796 326.86 105.956C325.324 105.116 324.124 103.964 323.26 102.5C322.42 101.036 322 99.356 322 97.46C322 95.564 322.408 93.884 323.224 92.42C324.064 90.956 325.204 89.816 326.644 89C328.108 88.16 329.752 87.74 331.576 87.74C333.424 87.74 335.056 88.148 336.472 88.964C337.888 89.78 338.992 90.932 339.784 92.42C340.6 93.884 341.008 95.6 341.008 97.568C341.008 97.712 340.996 97.88 340.972 98.072C340.972 98.264 340.96 98.444 340.936 98.612H324.7V96.128H339.136L337.732 96.992C337.756 95.768 337.504 94.676 336.976 93.716C336.448 92.756 335.716 92.012 334.78 91.484C333.868 90.932 332.8 90.656 331.576 90.656C330.376 90.656 329.308 90.932 328.372 91.484C327.436 92.012 326.704 92.768 326.176 93.752C325.648 94.712 325.384 95.816 325.384 97.064V97.64C325.384 98.912 325.672 100.052 326.248 101.06C326.848 102.044 327.676 102.812 328.732 103.364C329.788 103.916 331 104.192 332.368 104.192C333.496 104.192 334.516 104 335.428 103.616C336.364 103.232 337.18 102.656 337.876 101.888L339.784 104.12C338.92 105.128 337.84 105.896 336.544 106.424C335.272 106.952 333.844 107.216 332.26 107.216ZM353.691 107.216C351.843 107.216 350.187 106.808 348.723 105.992C347.283 105.176 346.143 104.036 345.303 102.572C344.463 101.108 344.043 99.404 344.043 97.46C344.043 95.516 344.463 93.824 345.303 92.384C346.143 90.92 347.283 89.78 348.723 88.964C350.187 88.148 351.843 87.74 353.691 87.74C355.299 87.74 356.751 88.1 358.047 88.82C359.343 89.54 360.375 90.62 361.143 92.06C361.935 93.5 362.331 95.3 362.331 97.46C362.331 99.62 361.947 101.42 361.179 102.86C360.435 104.3 359.415 105.392 358.119 106.136C356.823 106.856 355.347 107.216 353.691 107.216ZM353.979 104.192C355.179 104.192 356.259 103.916 357.219 103.364C358.203 102.812 358.971 102.032 359.523 101.024C360.099 99.992 360.387 98.804 360.387 97.46C360.387 96.092 360.099 94.916 359.523 93.932C358.971 92.924 358.203 92.144 357.219 91.592C356.259 91.04 355.179 90.764 353.979 90.764C352.755 90.764 351.663 91.04 350.703 91.592C349.743 92.144 348.975 92.924 348.399 93.932C347.823 94.916 347.535 96.092 347.535 97.46C347.535 98.804 347.823 99.992 348.399 101.024C348.975 102.032 349.743 102.812 350.703 103.364C351.663 103.916 352.755 104.192 353.979 104.192ZM360.495 107V101.852L360.711 97.424L360.351 92.996V80.288H363.807V107H360.495ZM380.518 107V81.8H390.346C392.554 81.8 394.438 82.148 395.998 82.844C397.558 83.54 398.758 84.548 399.598 85.868C400.438 87.188 400.858 88.76 400.858 90.584C400.858 92.408 400.438 93.98 399.598 95.3C398.758 96.596 397.558 97.604 395.998 98.324C394.438 99.02 392.554 99.368 390.346 99.368H382.498L384.118 97.676V107H380.518ZM384.118 98.036L382.498 96.236H390.238C392.542 96.236 394.282 95.744 395.458 94.76C396.658 93.776 397.258 92.384 397.258 90.584C397.258 88.784 396.658 87.392 395.458 86.408C394.282 85.424 392.542 84.932 390.238 84.932H382.498L384.118 83.132V98.036ZM417.311 107V102.968L417.131 102.212V95.336C417.131 93.872 416.699 92.744 415.835 91.952C414.995 91.136 413.723 90.728 412.019 90.728C410.891 90.728 409.787 90.92 408.707 91.304C407.627 91.664 406.715 92.156 405.971 92.78L404.531 90.188C405.515 89.396 406.691 88.796 408.059 88.388C409.451 87.956 410.903 87.74 412.415 87.74C415.031 87.74 417.047 88.376 418.463 89.648C419.879 90.92 420.587 92.864 420.587 95.48V107H417.311ZM411.047 107.216C409.631 107.216 408.383 106.976 407.303 106.496C406.247 106.016 405.431 105.356 404.855 104.516C404.279 103.652 403.991 102.68 403.991 101.6C403.991 100.568 404.231 99.632 404.711 98.792C405.215 97.952 406.019 97.28 407.123 96.776C408.251 96.272 409.763 96.02 411.659 96.02H417.707V98.504H411.803C410.075 98.504 408.911 98.792 408.311 99.368C407.711 99.944 407.411 100.64 407.411 101.456C407.411 102.392 407.783 103.148 408.527 103.724C409.271 104.276 410.303 104.552 411.623 104.552C412.919 104.552 414.047 104.264 415.007 103.688C415.991 103.112 416.699 102.272 417.131 101.168L417.815 103.544C417.359 104.672 416.555 105.572 415.403 106.244C414.251 106.892 412.799 107.216 411.047 107.216ZM426.983 107V87.92H430.295V93.104L429.971 91.808C430.499 90.488 431.387 89.48 432.635 88.784C433.883 88.088 435.419 87.74 437.243 87.74V91.088C437.099 91.064 436.955 91.052 436.811 91.052C436.691 91.052 436.571 91.052 436.451 91.052C434.603 91.052 433.139 91.604 432.059 92.708C430.979 93.812 430.439 95.408 430.439 97.496V107H426.983ZM448.828 107.216C446.908 107.216 445.42 106.7 444.364 105.668C443.308 104.636 442.78 103.16 442.78 101.24V83.744H446.236V101.096C446.236 102.128 446.488 102.92 446.992 103.472C447.52 104.024 448.264 104.3 449.224 104.3C450.304 104.3 451.204 104 451.924 103.4L453.004 105.884C452.476 106.34 451.84 106.676 451.096 106.892C450.376 107.108 449.62 107.216 448.828 107.216ZM439.54 90.764V87.92H451.708V90.764H439.54ZM467.37 87.74C468.93 87.74 470.298 88.04 471.474 88.64C472.674 89.24 473.61 90.152 474.282 91.376C474.954 92.6 475.29 94.148 475.29 96.02V107H471.834V96.416C471.834 94.568 471.378 93.176 470.466 92.24C469.578 91.304 468.318 90.836 466.686 90.836C465.462 90.836 464.394 91.076 463.482 91.556C462.57 92.036 461.862 92.744 461.358 93.68C460.878 94.616 460.638 95.78 460.638 97.172V107H457.182V87.92H460.494V93.068L459.954 91.7C460.578 90.452 461.538 89.48 462.834 88.784C464.13 88.088 465.642 87.74 467.37 87.74ZM490.182 107.216C488.142 107.216 486.342 106.796 484.782 105.956C483.246 105.116 482.046 103.964 481.182 102.5C480.342 101.036 479.922 99.356 479.922 97.46C479.922 95.564 480.33 93.884 481.146 92.42C481.986 90.956 483.126 89.816 484.566 89C486.03 88.16 487.674 87.74 489.498 87.74C491.346 87.74 492.978 88.148 494.394 88.964C495.81 89.78 496.914 90.932 497.706 92.42C498.522 93.884 498.93 95.6 498.93 97.568C498.93 97.712 498.918 97.88 498.894 98.072C498.894 98.264 498.882 98.444 498.858 98.612H482.622V96.128H497.058L495.654 96.992C495.678 95.768 495.426 94.676 494.898 93.716C494.37 92.756 493.638 92.012 492.702 91.484C491.79 90.932 490.722 90.656 489.498 90.656C488.298 90.656 487.23 90.932 486.294 91.484C485.358 92.012 484.626 92.768 484.098 93.752C483.57 94.712 483.306 95.816 483.306 97.064V97.64C483.306 98.912 483.594 100.052 484.17 101.06C484.77 102.044 485.598 102.812 486.654 103.364C487.71 103.916 488.922 104.192 490.29 104.192C491.418 104.192 492.438 104 493.35 103.616C494.286 103.232 495.102 102.656 495.798 101.888L497.706 104.12C496.842 105.128 495.762 105.896 494.466 106.424C493.194 106.952 491.766 107.216 490.182 107.216ZM503.729 107V87.92H507.041V93.104L506.717 91.808C507.245 90.488 508.133 89.48 509.381 88.784C510.629 88.088 512.165 87.74 513.989 87.74V91.088C513.845 91.064 513.701 91.052 513.557 91.052C513.437 91.052 513.317 91.052 513.197 91.052C511.349 91.052 509.885 91.604 508.805 92.708C507.725 93.812 507.185 95.408 507.185 97.496V107H503.729ZM523.932 107.216C522.348 107.216 520.836 107 519.396 106.568C517.98 106.136 516.864 105.608 516.048 104.984L517.488 102.248C518.304 102.8 519.312 103.268 520.512 103.652C521.712 104.036 522.936 104.228 524.184 104.228C525.792 104.228 526.944 104 527.64 103.544C528.36 103.088 528.72 102.452 528.72 101.636C528.72 101.036 528.504 100.568 528.072 100.232C527.64 99.896 527.064 99.644 526.344 99.476C525.648 99.308 524.868 99.164 524.004 99.044C523.14 98.9 522.276 98.732 521.412 98.54C520.548 98.324 519.756 98.036 519.036 97.676C518.316 97.292 517.74 96.776 517.308 96.128C516.876 95.456 516.66 94.568 516.66 93.464C516.66 92.312 516.984 91.304 517.632 90.44C518.28 89.576 519.192 88.916 520.368 88.46C521.568 87.98 522.984 87.74 524.616 87.74C525.864 87.74 527.124 87.896 528.396 88.208C529.692 88.496 530.748 88.916 531.564 89.468L530.088 92.204C529.224 91.628 528.324 91.232 527.388 91.016C526.452 90.8 525.516 90.692 524.58 90.692C523.068 90.692 521.94 90.944 521.196 91.448C520.452 91.928 520.08 92.552 520.08 93.32C520.08 93.968 520.296 94.472 520.728 94.832C521.184 95.168 521.76 95.432 522.456 95.624C523.176 95.816 523.968 95.984 524.832 96.128C525.696 96.248 526.56 96.416 527.424 96.632C528.288 96.824 529.068 97.1 529.764 97.46C530.484 97.82 531.06 98.324 531.492 98.972C531.948 99.62 532.176 100.484 532.176 101.564C532.176 102.716 531.84 103.712 531.168 104.552C530.496 105.392 529.548 106.052 528.324 106.532C527.1 106.988 525.636 107.216 523.932 107.216Z" fill="#0B132A"/>
<path d="M140.532 157L136.756 145.8H137.972L141.508 156.344H140.9L144.548 145.8H145.636L149.236 156.344H148.66L152.228 145.8H153.364L149.588 157H148.34L144.9 147H145.22L141.764 157H140.532ZM158.222 157.08C157.348 157.08 156.58 156.899 155.918 156.536C155.257 156.163 154.74 155.656 154.366 155.016C153.993 154.365 153.806 153.624 153.806 152.792C153.806 151.96 153.982 151.224 154.334 150.584C154.697 149.944 155.188 149.443 155.806 149.08C156.436 148.707 157.14 148.52 157.918 148.52C158.708 148.52 159.406 148.701 160.014 149.064C160.633 149.416 161.118 149.917 161.47 150.568C161.822 151.208 161.998 151.949 161.998 152.792C161.998 152.845 161.993 152.904 161.982 152.968C161.982 153.021 161.982 153.08 161.982 153.144H154.67V152.296H161.374L160.926 152.632C160.926 152.024 160.793 151.485 160.526 151.016C160.27 150.536 159.918 150.163 159.47 149.896C159.022 149.629 158.505 149.496 157.918 149.496C157.342 149.496 156.825 149.629 156.366 149.896C155.908 150.163 155.55 150.536 155.294 151.016C155.038 151.496 154.91 152.045 154.91 152.664V152.84C154.91 153.48 155.049 154.045 155.326 154.536C155.614 155.016 156.009 155.395 156.51 155.672C157.022 155.939 157.604 156.072 158.254 156.072C158.766 156.072 159.241 155.981 159.678 155.8C160.126 155.619 160.51 155.341 160.83 154.968L161.47 155.704C161.097 156.152 160.628 156.493 160.062 156.728C159.508 156.963 158.894 157.08 158.222 157.08ZM172.786 148.52C173.469 148.52 174.066 148.653 174.578 148.92C175.101 149.176 175.506 149.571 175.794 150.104C176.093 150.637 176.242 151.309 176.242 152.12V157H175.106V152.232C175.106 151.347 174.882 150.68 174.434 150.232C173.997 149.773 173.378 149.544 172.578 149.544C171.981 149.544 171.458 149.667 171.01 149.912C170.573 150.147 170.231 150.493 169.986 150.952C169.751 151.4 169.634 151.944 169.634 152.584V157H168.498V145.128H169.634V150.904L169.41 150.472C169.677 149.864 170.103 149.389 170.69 149.048C171.277 148.696 171.975 148.52 172.786 148.52ZM184.575 157V155.144L184.527 154.84V151.736C184.527 151.021 184.324 150.472 183.919 150.088C183.524 149.704 182.932 149.512 182.143 149.512C181.599 149.512 181.081 149.603 180.591 149.784C180.1 149.965 179.684 150.205 179.343 150.504L178.831 149.656C179.257 149.293 179.769 149.016 180.367 148.824C180.964 148.621 181.593 148.52 182.255 148.52C183.343 148.52 184.18 148.792 184.767 149.336C185.364 149.869 185.663 150.685 185.663 151.784V157H184.575ZM181.679 157.08C181.049 157.08 180.5 156.979 180.031 156.776C179.572 156.563 179.22 156.275 178.975 155.912C178.729 155.539 178.607 155.112 178.607 154.632C178.607 154.195 178.708 153.8 178.911 153.448C179.124 153.085 179.465 152.797 179.935 152.584C180.415 152.36 181.055 152.248 181.855 152.248H184.751V153.096H181.887C181.076 153.096 180.511 153.24 180.191 153.528C179.881 153.816 179.727 154.173 179.727 154.6C179.727 155.08 179.913 155.464 180.287 155.752C180.66 156.04 181.183 156.184 181.855 156.184C182.495 156.184 183.044 156.04 183.503 155.752C183.972 155.453 184.313 155.027 184.527 154.472L184.783 155.256C184.569 155.811 184.196 156.253 183.663 156.584C183.14 156.915 182.479 157.08 181.679 157.08ZM190.752 157L187.024 148.6H188.208L191.632 156.392H191.072L194.544 148.6H195.664L191.92 157H190.752ZM200.597 157.08C199.723 157.08 198.955 156.899 198.293 156.536C197.632 156.163 197.115 155.656 196.741 155.016C196.368 154.365 196.181 153.624 196.181 152.792C196.181 151.96 196.357 151.224 196.709 150.584C197.072 149.944 197.563 149.443 198.181 149.08C198.811 148.707 199.515 148.52 200.293 148.52C201.083 148.52 201.781 148.701 202.389 149.064C203.008 149.416 203.493 149.917 203.845 150.568C204.197 151.208 204.373 151.949 204.373 152.792C204.373 152.845 204.368 152.904 204.357 152.968C204.357 153.021 204.357 153.08 204.357 153.144H197.045V152.296H203.749L203.301 152.632C203.301 152.024 203.168 151.485 202.901 151.016C202.645 150.536 202.293 150.163 201.845 149.896C201.397 149.629 200.88 149.496 200.293 149.496C199.717 149.496 199.2 149.629 198.741 149.896C198.283 150.163 197.925 150.536 197.669 151.016C197.413 151.496 197.285 152.045 197.285 152.664V152.84C197.285 153.48 197.424 154.045 197.701 154.536C197.989 155.016 198.384 155.395 198.885 155.672C199.397 155.939 199.979 156.072 200.629 156.072C201.141 156.072 201.616 155.981 202.053 155.8C202.501 155.619 202.885 155.341 203.205 154.968L203.845 155.704C203.472 156.152 203.003 156.493 202.437 156.728C201.883 156.963 201.269 157.08 200.597 157.08ZM210.873 157V148.6H211.961V150.888L211.849 150.488C212.084 149.848 212.478 149.363 213.033 149.032C213.588 148.691 214.276 148.52 215.097 148.52V149.624C215.054 149.624 215.012 149.624 214.969 149.624C214.926 149.613 214.884 149.608 214.841 149.608C213.956 149.608 213.262 149.88 212.761 150.424C212.26 150.957 212.009 151.72 212.009 152.712V157H210.873ZM220.66 157.08C219.785 157.08 219.017 156.899 218.356 156.536C217.694 156.163 217.177 155.656 216.804 155.016C216.43 154.365 216.244 153.624 216.244 152.792C216.244 151.96 216.42 151.224 216.772 150.584C217.134 149.944 217.625 149.443 218.244 149.08C218.873 148.707 219.577 148.52 220.356 148.52C221.145 148.52 221.844 148.701 222.452 149.064C223.07 149.416 223.556 149.917 223.908 150.568C224.26 151.208 224.436 151.949 224.436 152.792C224.436 152.845 224.43 152.904 224.42 152.968C224.42 153.021 224.42 153.08 224.42 153.144H217.108V152.296H223.812L223.364 152.632C223.364 152.024 223.23 151.485 222.964 151.016C222.708 150.536 222.356 150.163 221.908 149.896C221.46 149.629 220.942 149.496 220.356 149.496C219.78 149.496 219.262 149.629 218.804 149.896C218.345 150.163 217.988 150.536 217.732 151.016C217.476 151.496 217.348 152.045 217.348 152.664V152.84C217.348 153.48 217.486 154.045 217.764 154.536C218.052 155.016 218.446 155.395 218.948 155.672C219.46 155.939 220.041 156.072 220.692 156.072C221.204 156.072 221.678 155.981 222.116 155.8C222.564 155.619 222.948 155.341 223.268 154.968L223.908 155.704C223.534 156.152 223.065 156.493 222.5 156.728C221.945 156.963 221.332 157.08 220.66 157.08ZM231.778 157V155.144L231.73 154.84V151.736C231.73 151.021 231.527 150.472 231.122 150.088C230.727 149.704 230.135 149.512 229.346 149.512C228.802 149.512 228.284 149.603 227.794 149.784C227.303 149.965 226.887 150.205 226.546 150.504L226.034 149.656C226.46 149.293 226.972 149.016 227.57 148.824C228.167 148.621 228.796 148.52 229.458 148.52C230.546 148.52 231.383 148.792 231.97 149.336C232.567 149.869 232.866 150.685 232.866 151.784V157H231.778ZM228.882 157.08C228.252 157.08 227.703 156.979 227.234 156.776C226.775 156.563 226.423 156.275 226.178 155.912C225.932 155.539 225.81 155.112 225.81 154.632C225.81 154.195 225.911 153.8 226.114 153.448C226.327 153.085 226.668 152.797 227.138 152.584C227.618 152.36 228.258 152.248 229.058 152.248H231.954V153.096H229.09C228.279 153.096 227.714 153.24 227.394 153.528C227.084 153.816 226.93 154.173 226.93 154.6C226.93 155.08 227.116 155.464 227.49 155.752C227.863 156.04 228.386 156.184 229.058 156.184C229.698 156.184 230.247 156.04 230.706 155.752C231.175 155.453 231.516 155.027 231.73 154.472L231.986 155.256C231.772 155.811 231.399 156.253 230.866 156.584C230.343 156.915 229.682 157.08 228.882 157.08ZM239.439 157.08C238.607 157.08 237.861 156.899 237.199 156.536C236.549 156.163 236.037 155.656 235.663 155.016C235.29 154.365 235.103 153.624 235.103 152.792C235.103 151.949 235.29 151.208 235.663 150.568C236.037 149.928 236.549 149.427 237.199 149.064C237.861 148.701 238.607 148.52 239.439 148.52C240.154 148.52 240.799 148.659 241.375 148.936C241.951 149.213 242.405 149.629 242.735 150.184L241.887 150.76C241.599 150.333 241.242 150.019 240.815 149.816C240.389 149.613 239.925 149.512 239.423 149.512C238.826 149.512 238.287 149.651 237.807 149.928C237.327 150.195 236.949 150.573 236.671 151.064C236.394 151.555 236.255 152.131 236.255 152.792C236.255 153.453 236.394 154.029 236.671 154.52C236.949 155.011 237.327 155.395 237.807 155.672C238.287 155.939 238.826 156.072 239.423 156.072C239.925 156.072 240.389 155.971 240.815 155.768C241.242 155.565 241.599 155.256 241.887 154.84L242.735 155.416C242.405 155.96 241.951 156.376 241.375 156.664C240.799 156.941 240.154 157.08 239.439 157.08ZM249.13 148.52C249.812 148.52 250.41 148.653 250.922 148.92C251.444 149.176 251.85 149.571 252.138 150.104C252.436 150.637 252.586 151.309 252.586 152.12V157H251.45V152.232C251.45 151.347 251.226 150.68 250.778 150.232C250.34 149.773 249.722 149.544 248.922 149.544C248.324 149.544 247.802 149.667 247.354 149.912C246.916 150.147 246.575 150.493 246.33 150.952C246.095 151.4 245.978 151.944 245.978 152.584V157H244.842V145.128H245.978V150.904L245.754 150.472C246.02 149.864 246.447 149.389 247.034 149.048C247.62 148.696 248.319 148.52 249.13 148.52ZM259.222 157.08C258.348 157.08 257.58 156.899 256.918 156.536C256.257 156.163 255.74 155.656 255.366 155.016C254.993 154.365 254.806 153.624 254.806 152.792C254.806 151.96 254.982 151.224 255.334 150.584C255.697 149.944 256.188 149.443 256.806 149.08C257.436 148.707 258.14 148.52 258.918 148.52C259.708 148.52 260.406 148.701 261.014 149.064C261.633 149.416 262.118 149.917 262.47 150.568C262.822 151.208 262.998 151.949 262.998 152.792C262.998 152.845 262.993 152.904 262.982 152.968C262.982 153.021 262.982 153.08 262.982 153.144H255.67V152.296H262.374L261.926 152.632C261.926 152.024 261.793 151.485 261.526 151.016C261.27 150.536 260.918 150.163 260.47 149.896C260.022 149.629 259.505 149.496 258.918 149.496C258.342 149.496 257.825 149.629 257.366 149.896C256.908 150.163 256.55 150.536 256.294 151.016C256.038 151.496 255.91 152.045 255.91 152.664V152.84C255.91 153.48 256.049 154.045 256.326 154.536C256.614 155.016 257.009 155.395 257.51 155.672C258.022 155.939 258.604 156.072 259.254 156.072C259.766 156.072 260.241 155.981 260.678 155.8C261.126 155.619 261.51 155.341 261.83 154.968L262.47 155.704C262.097 156.152 261.628 156.493 261.062 156.728C260.508 156.963 259.894 157.08 259.222 157.08ZM268.655 157.08C267.855 157.08 267.135 156.899 266.495 156.536C265.865 156.173 265.369 155.672 265.007 155.032C264.644 154.381 264.463 153.635 264.463 152.792C264.463 151.939 264.644 151.192 265.007 150.552C265.369 149.912 265.865 149.416 266.495 149.064C267.135 148.701 267.855 148.52 268.655 148.52C269.391 148.52 270.047 148.685 270.623 149.016C271.209 149.347 271.673 149.832 272.015 150.472C272.367 151.101 272.543 151.875 272.543 152.792C272.543 153.699 272.372 154.472 272.031 155.112C271.689 155.752 271.225 156.243 270.639 156.584C270.063 156.915 269.401 157.08 268.655 157.08ZM268.735 156.072C269.332 156.072 269.865 155.939 270.335 155.672C270.815 155.395 271.188 155.011 271.455 154.52C271.732 154.019 271.871 153.443 271.871 152.792C271.871 152.131 271.732 151.555 271.455 151.064C271.188 150.573 270.815 150.195 270.335 149.928C269.865 149.651 269.332 149.512 268.735 149.512C268.148 149.512 267.62 149.651 267.151 149.928C266.681 150.195 266.308 150.573 266.031 151.064C265.753 151.555 265.615 152.131 265.615 152.792C265.615 153.443 265.753 154.019 266.031 154.52C266.308 155.011 266.681 155.395 267.151 155.672C267.62 155.939 268.148 156.072 268.735 156.072ZM271.903 157V154.472L272.015 152.776L271.855 151.08V145.128H272.991V157H271.903ZM283.926 160.184C283.158 160.184 282.422 160.072 281.718 159.848C281.014 159.624 280.443 159.304 280.006 158.888L280.582 158.024C280.976 158.376 281.462 158.653 282.038 158.856C282.624 159.069 283.243 159.176 283.894 159.176C284.96 159.176 285.744 158.925 286.246 158.424C286.747 157.933 286.998 157.165 286.998 156.12V154.024L287.158 152.584L287.046 151.144V148.6H288.134V155.976C288.134 157.427 287.776 158.488 287.062 159.16C286.358 159.843 285.312 160.184 283.926 160.184ZM283.718 156.68C282.918 156.68 282.198 156.509 281.558 156.168C280.918 155.816 280.411 155.331 280.038 154.712C279.675 154.093 279.494 153.384 279.494 152.584C279.494 151.784 279.675 151.08 280.038 150.472C280.411 149.853 280.918 149.373 281.558 149.032C282.198 148.691 282.918 148.52 283.718 148.52C284.464 148.52 285.136 148.675 285.734 148.984C286.331 149.293 286.806 149.752 287.158 150.36C287.51 150.968 287.686 151.709 287.686 152.584C287.686 153.459 287.51 154.2 287.158 154.808C286.806 155.416 286.331 155.88 285.734 156.2C285.136 156.52 284.464 156.68 283.718 156.68ZM283.83 155.672C284.448 155.672 284.998 155.544 285.478 155.288C285.958 155.021 286.336 154.659 286.614 154.2C286.891 153.731 287.03 153.192 287.03 152.584C287.03 151.976 286.891 151.443 286.614 150.984C286.336 150.525 285.958 150.168 285.478 149.912C284.998 149.645 284.448 149.512 283.83 149.512C283.222 149.512 282.672 149.645 282.182 149.912C281.702 150.168 281.323 150.525 281.046 150.984C280.779 151.443 280.646 151.976 280.646 152.584C280.646 153.192 280.779 153.731 281.046 154.2C281.323 154.659 281.702 155.021 282.182 155.288C282.672 155.544 283.222 155.672 283.83 155.672ZM291.295 157V145.128H292.431V157H291.295ZM299.016 157.08C298.205 157.08 297.474 156.899 296.824 156.536C296.184 156.163 295.677 155.656 295.304 155.016C294.93 154.365 294.744 153.624 294.744 152.792C294.744 151.949 294.93 151.208 295.304 150.568C295.677 149.928 296.184 149.427 296.824 149.064C297.464 148.701 298.194 148.52 299.016 148.52C299.848 148.52 300.584 148.701 301.224 149.064C301.874 149.427 302.381 149.928 302.744 150.568C303.117 151.208 303.304 151.949 303.304 152.792C303.304 153.624 303.117 154.365 302.744 155.016C302.381 155.656 301.874 156.163 301.224 156.536C300.573 156.899 299.837 157.08 299.016 157.08ZM299.016 156.072C299.624 156.072 300.162 155.939 300.632 155.672C301.101 155.395 301.469 155.011 301.736 154.52C302.013 154.019 302.152 153.443 302.152 152.792C302.152 152.131 302.013 151.555 301.736 151.064C301.469 150.573 301.101 150.195 300.632 149.928C300.162 149.651 299.629 149.512 299.032 149.512C298.434 149.512 297.901 149.651 297.432 149.928C296.962 150.195 296.589 150.573 296.312 151.064C296.034 151.555 295.896 152.131 295.896 152.792C295.896 153.443 296.034 154.019 296.312 154.52C296.589 155.011 296.962 155.395 297.432 155.672C297.901 155.939 298.429 156.072 299.016 156.072ZM309.959 157.08C309.223 157.08 308.562 156.915 307.975 156.584C307.388 156.243 306.924 155.752 306.583 155.112C306.242 154.472 306.071 153.699 306.071 152.792C306.071 151.875 306.242 151.101 306.583 150.472C306.935 149.832 307.404 149.347 307.991 149.016C308.578 148.685 309.234 148.52 309.959 148.52C310.759 148.52 311.474 148.701 312.103 149.064C312.743 149.416 313.244 149.912 313.607 150.552C313.97 151.192 314.151 151.939 314.151 152.792C314.151 153.635 313.97 154.381 313.607 155.032C313.244 155.672 312.743 156.173 312.103 156.536C311.474 156.899 310.759 157.08 309.959 157.08ZM305.623 157V145.128H306.759V151.08L306.599 152.776L306.711 154.472V157H305.623ZM309.879 156.072C310.476 156.072 311.01 155.939 311.479 155.672C311.948 155.395 312.322 155.011 312.599 154.52C312.876 154.019 313.015 153.443 313.015 152.792C313.015 152.131 312.876 151.555 312.599 151.064C312.322 150.573 311.948 150.195 311.479 149.928C311.01 149.651 310.476 149.512 309.879 149.512C309.282 149.512 308.743 149.651 308.263 149.928C307.794 150.195 307.42 150.573 307.143 151.064C306.876 151.555 306.743 152.131 306.743 152.792C306.743 153.443 306.876 154.019 307.143 154.52C307.42 155.011 307.794 155.395 308.263 155.672C308.743 155.939 309.282 156.072 309.879 156.072ZM321.684 157V155.144L321.636 154.84V151.736C321.636 151.021 321.433 150.472 321.028 150.088C320.633 149.704 320.041 149.512 319.252 149.512C318.708 149.512 318.191 149.603 317.7 149.784C317.209 149.965 316.793 150.205 316.452 150.504L315.94 149.656C316.367 149.293 316.879 149.016 317.476 148.824C318.073 148.621 318.703 148.52 319.364 148.52C320.452 148.52 321.289 148.792 321.876 149.336C322.473 149.869 322.772 150.685 322.772 151.784V157H321.684ZM318.788 157.08C318.159 157.08 317.609 156.979 317.14 156.776C316.681 156.563 316.329 156.275 316.084 155.912C315.839 155.539 315.716 155.112 315.716 154.632C315.716 154.195 315.817 153.8 316.02 153.448C316.233 153.085 316.575 152.797 317.044 152.584C317.524 152.36 318.164 152.248 318.964 152.248H321.86V153.096H318.996C318.185 153.096 317.62 153.24 317.3 153.528C316.991 153.816 316.836 154.173 316.836 154.6C316.836 155.08 317.023 155.464 317.396 155.752C317.769 156.04 318.292 156.184 318.964 156.184C319.604 156.184 320.153 156.04 320.612 155.752C321.081 155.453 321.423 155.027 321.636 154.472L321.892 155.256C321.679 155.811 321.305 156.253 320.772 156.584C320.249 156.915 319.588 157.08 318.788 157.08ZM325.857 157V145.128H326.993V157H325.857ZM334.342 157V145.128H335.478V157H334.342ZM342.207 157.08C341.332 157.08 340.564 156.899 339.903 156.536C339.241 156.163 338.724 155.656 338.351 155.016C337.977 154.365 337.791 153.624 337.791 152.792C337.791 151.96 337.967 151.224 338.319 150.584C338.681 149.944 339.172 149.443 339.791 149.08C340.42 148.707 341.124 148.52 341.903 148.52C342.692 148.52 343.391 148.701 343.999 149.064C344.617 149.416 345.103 149.917 345.455 150.568C345.807 151.208 345.983 151.949 345.983 152.792C345.983 152.845 345.977 152.904 345.967 152.968C345.967 153.021 345.967 153.08 345.967 153.144H338.655V152.296H345.359L344.911 152.632C344.911 152.024 344.777 151.485 344.511 151.016C344.255 150.536 343.903 150.163 343.455 149.896C343.007 149.629 342.489 149.496 341.903 149.496C341.327 149.496 340.809 149.629 340.351 149.896C339.892 150.163 339.535 150.536 339.279 151.016C339.023 151.496 338.895 152.045 338.895 152.664V152.84C338.895 153.48 339.033 154.045 339.311 154.536C339.599 155.016 339.993 155.395 340.495 155.672C341.007 155.939 341.588 156.072 342.239 156.072C342.751 156.072 343.225 155.981 343.663 155.8C344.111 155.619 344.495 155.341 344.815 154.968L345.455 155.704C345.081 156.152 344.612 156.493 344.047 156.728C343.492 156.963 342.879 157.08 342.207 157.08ZM350.299 157L346.571 148.6H347.755L351.179 156.392H350.619L354.091 148.6H355.211L351.467 157H350.299ZM360.144 157.08C359.27 157.08 358.502 156.899 357.84 156.536C357.179 156.163 356.662 155.656 356.288 155.016C355.915 154.365 355.728 153.624 355.728 152.792C355.728 151.96 355.904 151.224 356.256 150.584C356.619 149.944 357.11 149.443 357.728 149.08C358.358 148.707 359.062 148.52 359.84 148.52C360.63 148.52 361.328 148.701 361.936 149.064C362.555 149.416 363.04 149.917 363.392 150.568C363.744 151.208 363.92 151.949 363.92 152.792C363.92 152.845 363.915 152.904 363.904 152.968C363.904 153.021 363.904 153.08 363.904 153.144H356.592V152.296H363.296L362.848 152.632C362.848 152.024 362.715 151.485 362.448 151.016C362.192 150.536 361.84 150.163 361.392 149.896C360.944 149.629 360.427 149.496 359.84 149.496C359.264 149.496 358.747 149.629 358.288 149.896C357.83 150.163 357.472 150.536 357.216 151.016C356.96 151.496 356.832 152.045 356.832 152.664V152.84C356.832 153.48 356.971 154.045 357.248 154.536C357.536 155.016 357.931 155.395 358.432 155.672C358.944 155.939 359.526 156.072 360.176 156.072C360.688 156.072 361.163 155.981 361.6 155.8C362.048 155.619 362.432 155.341 362.752 154.968L363.392 155.704C363.019 156.152 362.55 156.493 361.984 156.728C361.43 156.963 360.816 157.08 360.144 157.08ZM366.232 157V145.128H367.368V157H366.232ZM379.981 157V155.144L379.933 154.84V151.736C379.933 151.021 379.73 150.472 379.325 150.088C378.93 149.704 378.338 149.512 377.549 149.512C377.005 149.512 376.487 149.603 375.997 149.784C375.506 149.965 375.09 150.205 374.749 150.504L374.237 149.656C374.663 149.293 375.175 149.016 375.773 148.824C376.37 148.621 376.999 148.52 377.661 148.52C378.749 148.52 379.586 148.792 380.173 149.336C380.77 149.869 381.069 150.685 381.069 151.784V157H379.981ZM377.085 157.08C376.455 157.08 375.906 156.979 375.437 156.776C374.978 156.563 374.626 156.275 374.381 155.912C374.135 155.539 374.013 155.112 374.013 154.632C374.013 154.195 374.114 153.8 374.317 153.448C374.53 153.085 374.871 152.797 375.341 152.584C375.821 152.36 376.461 152.248 377.261 152.248H380.157V153.096H377.293C376.482 153.096 375.917 153.24 375.597 153.528C375.287 153.816 375.133 154.173 375.133 154.6C375.133 155.08 375.319 155.464 375.693 155.752C376.066 156.04 376.589 156.184 377.261 156.184C377.901 156.184 378.45 156.04 378.909 155.752C379.378 155.453 379.719 155.027 379.933 154.472L380.189 155.256C379.975 155.811 379.602 156.253 379.069 156.584C378.546 156.915 377.885 157.08 377.085 157.08ZM388.442 148.52C389.125 148.52 389.722 148.653 390.234 148.92C390.757 149.176 391.162 149.571 391.45 150.104C391.749 150.637 391.898 151.309 391.898 152.12V157H390.762V152.232C390.762 151.347 390.538 150.68 390.09 150.232C389.653 149.773 389.034 149.544 388.234 149.544C387.637 149.544 387.114 149.667 386.666 149.912C386.229 150.147 385.888 150.493 385.642 150.952C385.408 151.4 385.29 151.944 385.29 152.584V157H384.154V148.6H385.242V150.904L385.066 150.472C385.333 149.864 385.76 149.389 386.346 149.048C386.933 148.696 387.632 148.52 388.442 148.52ZM398.311 157.08C397.511 157.08 396.791 156.899 396.151 156.536C395.521 156.173 395.025 155.672 394.663 155.032C394.3 154.381 394.119 153.635 394.119 152.792C394.119 151.939 394.3 151.192 394.663 150.552C395.025 149.912 395.521 149.416 396.151 149.064C396.791 148.701 397.511 148.52 398.311 148.52C399.047 148.52 399.703 148.685 400.279 149.016C400.865 149.347 401.329 149.832 401.671 150.472C402.023 151.101 402.199 151.875 402.199 152.792C402.199 153.699 402.028 154.472 401.687 155.112C401.345 155.752 400.881 156.243 400.295 156.584C399.719 156.915 399.057 157.08 398.311 157.08ZM398.391 156.072C398.988 156.072 399.521 155.939 399.991 155.672C400.471 155.395 400.844 155.011 401.111 154.52C401.388 154.019 401.527 153.443 401.527 152.792C401.527 152.131 401.388 151.555 401.111 151.064C400.844 150.573 400.471 150.195 399.991 149.928C399.521 149.651 398.988 149.512 398.391 149.512C397.804 149.512 397.276 149.651 396.807 149.928C396.337 150.195 395.964 150.573 395.687 151.064C395.409 151.555 395.271 152.131 395.271 152.792C395.271 153.443 395.409 154.019 395.687 154.52C395.964 155.011 396.337 155.395 396.807 155.672C397.276 155.939 397.804 156.072 398.391 156.072ZM401.559 157V154.472L401.671 152.776L401.511 151.08V145.128H402.647V157H401.559ZM414.286 148.52C414.969 148.52 415.566 148.653 416.078 148.92C416.601 149.176 417.006 149.571 417.294 150.104C417.593 150.637 417.742 151.309 417.742 152.12V157H416.606V152.232C416.606 151.347 416.382 150.68 415.934 150.232C415.497 149.773 414.878 149.544 414.078 149.544C413.481 149.544 412.958 149.667 412.51 149.912C412.073 150.147 411.731 150.493 411.486 150.952C411.251 151.4 411.134 151.944 411.134 152.584V157H409.998V145.128H411.134V150.904L410.91 150.472C411.177 149.864 411.603 149.389 412.19 149.048C412.777 148.696 413.475 148.52 414.286 148.52ZM426.075 157V155.144L426.027 154.84V151.736C426.027 151.021 425.824 150.472 425.419 150.088C425.024 149.704 424.432 149.512 423.643 149.512C423.099 149.512 422.581 149.603 422.091 149.784C421.6 149.965 421.184 150.205 420.843 150.504L420.331 149.656C420.757 149.293 421.269 149.016 421.867 148.824C422.464 148.621 423.093 148.52 423.755 148.52C424.843 148.52 425.68 148.792 426.267 149.336C426.864 149.869 427.163 150.685 427.163 151.784V157H426.075ZM423.179 157.08C422.549 157.08 422 156.979 421.531 156.776C421.072 156.563 420.72 156.275 420.475 155.912C420.229 155.539 420.107 155.112 420.107 154.632C420.107 154.195 420.208 153.8 420.411 153.448C420.624 153.085 420.965 152.797 421.435 152.584C421.915 152.36 422.555 152.248 423.355 152.248H426.251V153.096H423.387C422.576 153.096 422.011 153.24 421.691 153.528C421.381 153.816 421.227 154.173 421.227 154.6C421.227 155.08 421.413 155.464 421.787 155.752C422.16 156.04 422.683 156.184 423.355 156.184C423.995 156.184 424.544 156.04 425.003 155.752C425.472 155.453 425.813 155.027 426.027 154.472L426.283 155.256C426.069 155.811 425.696 156.253 425.163 156.584C424.64 156.915 423.979 157.08 423.179 157.08ZM432.252 157L428.524 148.6H429.708L433.132 156.392H432.572L436.044 148.6H437.164L433.42 157H432.252ZM442.097 157.08C441.223 157.08 440.455 156.899 439.793 156.536C439.132 156.163 438.615 155.656 438.241 155.016C437.868 154.365 437.681 153.624 437.681 152.792C437.681 151.96 437.857 151.224 438.209 150.584C438.572 149.944 439.063 149.443 439.681 149.08C440.311 148.707 441.015 148.52 441.793 148.52C442.583 148.52 443.281 148.701 443.889 149.064C444.508 149.416 444.993 149.917 445.345 150.568C445.697 151.208 445.873 151.949 445.873 152.792C445.873 152.845 445.868 152.904 445.857 152.968C445.857 153.021 445.857 153.08 445.857 153.144H438.545V152.296H445.249L444.801 152.632C444.801 152.024 444.668 151.485 444.401 151.016C444.145 150.536 443.793 150.163 443.345 149.896C442.897 149.629 442.38 149.496 441.793 149.496C441.217 149.496 440.7 149.629 440.241 149.896C439.783 150.163 439.425 150.536 439.169 151.016C438.913 151.496 438.785 152.045 438.785 152.664V152.84C438.785 153.48 438.924 154.045 439.201 154.536C439.489 155.016 439.884 155.395 440.385 155.672C440.897 155.939 441.479 156.072 442.129 156.072C442.641 156.072 443.116 155.981 443.553 155.8C444.001 155.619 444.385 155.341 444.705 154.968L445.345 155.704C444.972 156.152 444.503 156.493 443.937 156.728C443.383 156.963 442.769 157.08 442.097 157.08ZM453.573 157V146.28L454.085 146.824H450.933V145.8H454.725V157H453.573ZM461.866 157.096C461.002 157.096 460.234 156.872 459.562 156.424C458.89 155.965 458.362 155.315 457.978 154.472C457.594 153.619 457.402 152.595 457.402 151.4C457.402 150.205 457.594 149.187 457.978 148.344C458.362 147.491 458.89 146.84 459.562 146.392C460.234 145.933 461.002 145.704 461.866 145.704C462.73 145.704 463.498 145.933 464.17 146.392C464.842 146.84 465.37 147.491 465.754 148.344C466.149 149.187 466.346 150.205 466.346 151.4C466.346 152.595 466.149 153.619 465.754 154.472C465.37 155.315 464.842 155.965 464.17 156.424C463.498 156.872 462.73 157.096 461.866 157.096ZM461.866 156.04C462.528 156.04 463.104 155.864 463.594 155.512C464.085 155.149 464.469 154.627 464.746 153.944C465.024 153.251 465.162 152.403 465.162 151.4C465.162 150.397 465.024 149.555 464.746 148.872C464.469 148.179 464.085 147.656 463.594 147.304C463.104 146.941 462.528 146.76 461.866 146.76C461.226 146.76 460.656 146.941 460.154 147.304C459.653 147.656 459.264 148.179 458.986 148.872C458.709 149.555 458.57 150.397 458.57 151.4C458.57 152.403 458.709 153.251 458.986 153.944C459.264 154.627 459.653 155.149 460.154 155.512C460.656 155.864 461.226 156.04 461.866 156.04ZM472.46 157.096C471.596 157.096 470.828 156.872 470.156 156.424C469.484 155.965 468.956 155.315 468.572 154.472C468.188 153.619 467.996 152.595 467.996 151.4C467.996 150.205 468.188 149.187 468.572 148.344C468.956 147.491 469.484 146.84 470.156 146.392C470.828 145.933 471.596 145.704 472.46 145.704C473.324 145.704 474.092 145.933 474.764 146.392C475.436 146.84 475.964 147.491 476.348 148.344C476.743 149.187 476.94 150.205 476.94 151.4C476.94 152.595 476.743 153.619 476.348 154.472C475.964 155.315 475.436 155.965 474.764 156.424C474.092 156.872 473.324 157.096 472.46 157.096ZM472.46 156.04C473.121 156.04 473.697 155.864 474.188 155.512C474.679 155.149 475.063 154.627 475.34 153.944C475.617 153.251 475.756 152.403 475.756 151.4C475.756 150.397 475.617 149.555 475.34 148.872C475.063 148.179 474.679 147.656 474.188 147.304C473.697 146.941 473.121 146.76 472.46 146.76C471.82 146.76 471.249 146.941 470.748 147.304C470.247 147.656 469.857 148.179 469.58 148.872C469.303 149.555 469.164 150.397 469.164 151.4C469.164 152.403 469.303 153.251 469.58 153.944C469.857 154.627 470.247 155.149 470.748 155.512C471.249 155.864 471.82 156.04 472.46 156.04ZM481.979 154.792V148.008H482.987V154.792H481.979ZM479.003 151.88V150.936H485.963V151.88H479.003ZM142.084 182.08C141.348 182.08 140.687 181.915 140.1 181.584C139.513 181.243 139.049 180.752 138.708 180.112C138.367 179.472 138.196 178.699 138.196 177.792C138.196 176.875 138.367 176.101 138.708 175.472C139.06 174.832 139.529 174.347 140.116 174.016C140.703 173.685 141.359 173.52 142.084 173.52C142.884 173.52 143.599 173.701 144.228 174.064C144.868 174.416 145.369 174.912 145.732 175.552C146.095 176.192 146.276 176.939 146.276 177.792C146.276 178.635 146.095 179.381 145.732 180.032C145.369 180.672 144.868 181.173 144.228 181.536C143.599 181.899 142.884 182.08 142.084 182.08ZM137.748 182V170.128H138.884V176.08L138.724 177.776L138.836 179.472V182H137.748ZM142.004 181.072C142.601 181.072 143.135 180.939 143.604 180.672C144.073 180.395 144.447 180.011 144.724 179.52C145.001 179.019 145.14 178.443 145.14 177.792C145.14 177.131 145.001 176.555 144.724 176.064C144.447 175.573 144.073 175.195 143.604 174.928C143.135 174.651 142.601 174.512 142.004 174.512C141.407 174.512 140.868 174.651 140.388 174.928C139.919 175.195 139.545 175.573 139.268 176.064C139.001 176.555 138.868 177.131 138.868 177.792C138.868 178.443 139.001 179.019 139.268 179.52C139.545 180.011 139.919 180.395 140.388 180.672C140.868 180.939 141.407 181.072 142.004 181.072ZM148.592 182V173.6H149.68V175.888L149.568 175.488C149.802 174.848 150.197 174.363 150.752 174.032C151.306 173.691 151.994 173.52 152.816 173.52V174.624C152.773 174.624 152.73 174.624 152.688 174.624C152.645 174.613 152.602 174.608 152.56 174.608C151.674 174.608 150.981 174.88 150.48 175.424C149.978 175.957 149.728 176.72 149.728 177.712V182H148.592ZM159.528 182V180.144L159.48 179.84V176.736C159.48 176.021 159.277 175.472 158.872 175.088C158.477 174.704 157.885 174.512 157.096 174.512C156.552 174.512 156.034 174.603 155.544 174.784C155.053 174.965 154.637 175.205 154.296 175.504L153.784 174.656C154.21 174.293 154.722 174.016 155.32 173.824C155.917 173.621 156.546 173.52 157.208 173.52C158.296 173.52 159.133 173.792 159.72 174.336C160.317 174.869 160.616 175.685 160.616 176.784V182H159.528ZM156.632 182.08C156.002 182.08 155.453 181.979 154.984 181.776C154.525 181.563 154.173 181.275 153.928 180.912C153.682 180.539 153.56 180.112 153.56 179.632C153.56 179.195 153.661 178.8 153.864 178.448C154.077 178.085 154.418 177.797 154.888 177.584C155.368 177.36 156.008 177.248 156.808 177.248H159.704V178.096H156.84C156.029 178.096 155.464 178.24 155.144 178.528C154.834 178.816 154.68 179.173 154.68 179.6C154.68 180.08 154.866 180.464 155.24 180.752C155.613 181.04 156.136 181.184 156.808 181.184C157.448 181.184 157.997 181.04 158.456 180.752C158.925 180.453 159.266 180.027 159.48 179.472L159.736 180.256C159.522 180.811 159.149 181.253 158.616 181.584C158.093 181.915 157.432 182.08 156.632 182.08ZM167.989 173.52C168.672 173.52 169.269 173.653 169.781 173.92C170.304 174.176 170.709 174.571 170.997 175.104C171.296 175.637 171.445 176.309 171.445 177.12V182H170.309V177.232C170.309 176.347 170.085 175.68 169.637 175.232C169.2 174.773 168.581 174.544 167.781 174.544C167.184 174.544 166.661 174.667 166.213 174.912C165.776 175.147 165.435 175.493 165.189 175.952C164.955 176.4 164.837 176.944 164.837 177.584V182H163.701V173.6H164.789V175.904L164.613 175.472C164.88 174.864 165.307 174.389 165.893 174.048C166.48 173.696 167.179 173.52 167.989 173.52ZM177.858 182.08C177.058 182.08 176.338 181.899 175.698 181.536C175.068 181.173 174.572 180.672 174.21 180.032C173.847 179.381 173.666 178.635 173.666 177.792C173.666 176.939 173.847 176.192 174.21 175.552C174.572 174.912 175.068 174.416 175.698 174.064C176.338 173.701 177.058 173.52 177.858 173.52C178.594 173.52 179.25 173.685 179.826 174.016C180.412 174.347 180.876 174.832 181.218 175.472C181.57 176.101 181.746 176.875 181.746 177.792C181.746 178.699 181.575 179.472 181.234 180.112C180.892 180.752 180.428 181.243 179.842 181.584C179.266 181.915 178.604 182.08 177.858 182.08ZM177.938 181.072C178.535 181.072 179.068 180.939 179.538 180.672C180.018 180.395 180.391 180.011 180.658 179.52C180.935 179.019 181.074 178.443 181.074 177.792C181.074 177.131 180.935 176.555 180.658 176.064C180.391 175.573 180.018 175.195 179.538 174.928C179.068 174.651 178.535 174.512 177.938 174.512C177.351 174.512 176.823 174.651 176.354 174.928C175.884 175.195 175.511 175.573 175.234 176.064C174.956 176.555 174.818 177.131 174.818 177.792C174.818 178.443 174.956 179.019 175.234 179.52C175.511 180.011 175.884 180.395 176.354 180.672C176.823 180.939 177.351 181.072 177.938 181.072ZM181.106 182V179.472L181.218 177.776L181.058 176.08V170.128H182.194V182H181.106ZM193.881 182.08C193.156 182.08 192.5 181.915 191.913 181.584C191.326 181.243 190.857 180.757 190.505 180.128C190.164 179.488 189.993 178.709 189.993 177.792C189.993 176.875 190.164 176.101 190.505 175.472C190.846 174.832 191.31 174.347 191.897 174.016C192.484 173.685 193.145 173.52 193.881 173.52C194.681 173.52 195.396 173.701 196.025 174.064C196.665 174.416 197.166 174.917 197.529 175.568C197.892 176.208 198.073 176.949 198.073 177.792C198.073 178.645 197.892 179.392 197.529 180.032C197.166 180.672 196.665 181.173 196.025 181.536C195.396 181.899 194.681 182.08 193.881 182.08ZM189.545 185.104V173.6H190.633V176.128L190.521 177.808L190.681 179.504V185.104H189.545ZM193.801 181.072C194.398 181.072 194.932 180.939 195.401 180.672C195.87 180.395 196.244 180.011 196.521 179.52C196.798 179.019 196.937 178.443 196.937 177.792C196.937 177.141 196.798 176.571 196.521 176.08C196.244 175.589 195.87 175.205 195.401 174.928C194.932 174.651 194.398 174.512 193.801 174.512C193.204 174.512 192.665 174.651 192.185 174.928C191.716 175.205 191.342 175.589 191.065 176.08C190.798 176.571 190.665 177.141 190.665 177.792C190.665 178.443 190.798 179.019 191.065 179.52C191.342 180.011 191.716 180.395 192.185 180.672C192.665 180.939 193.204 181.072 193.801 181.072ZM205.606 182V180.144L205.558 179.84V176.736C205.558 176.021 205.355 175.472 204.95 175.088C204.555 174.704 203.963 174.512 203.174 174.512C202.63 174.512 202.112 174.603 201.622 174.784C201.131 174.965 200.715 175.205 200.374 175.504L199.862 174.656C200.288 174.293 200.8 174.016 201.398 173.824C201.995 173.621 202.624 173.52 203.286 173.52C204.374 173.52 205.211 173.792 205.798 174.336C206.395 174.869 206.694 175.685 206.694 176.784V182H205.606ZM202.71 182.08C202.08 182.08 201.531 181.979 201.062 181.776C200.603 181.563 200.251 181.275 200.006 180.912C199.76 180.539 199.638 180.112 199.638 179.632C199.638 179.195 199.739 178.8 199.942 178.448C200.155 178.085 200.496 177.797 200.966 177.584C201.446 177.36 202.086 177.248 202.886 177.248H205.782V178.096H202.918C202.107 178.096 201.542 178.24 201.222 178.528C200.912 178.816 200.758 179.173 200.758 179.6C200.758 180.08 200.944 180.464 201.318 180.752C201.691 181.04 202.214 181.184 202.886 181.184C203.526 181.184 204.075 181.04 204.534 180.752C205.003 180.453 205.344 180.027 205.558 179.472L205.814 180.256C205.6 180.811 205.227 181.253 204.694 181.584C204.171 181.915 203.51 182.08 202.71 182.08ZM209.779 182V173.6H210.867V175.888L210.755 175.488C210.99 174.848 211.385 174.363 211.939 174.032C212.494 173.691 213.182 173.52 214.003 173.52V174.624C213.961 174.624 213.918 174.624 213.875 174.624C213.833 174.613 213.79 174.608 213.747 174.608C212.862 174.608 212.169 174.88 211.667 175.424C211.166 175.957 210.915 176.72 210.915 177.712V182H209.779ZM219.092 182.08C218.302 182.08 217.694 181.867 217.268 181.44C216.841 181.013 216.628 180.411 216.628 179.632V171.744H217.764V179.568C217.764 180.059 217.886 180.437 218.132 180.704C218.388 180.971 218.75 181.104 219.22 181.104C219.721 181.104 220.137 180.96 220.468 180.672L220.868 181.488C220.644 181.691 220.372 181.84 220.052 181.936C219.742 182.032 219.422 182.08 219.092 182.08ZM215.124 174.544V173.6H220.324V174.544H215.124ZM227.224 173.52C227.906 173.52 228.504 173.653 229.016 173.92C229.538 174.176 229.944 174.571 230.232 175.104C230.53 175.637 230.68 176.309 230.68 177.12V182H229.544V177.232C229.544 176.347 229.32 175.68 228.872 175.232C228.434 174.773 227.816 174.544 227.016 174.544C226.418 174.544 225.896 174.667 225.448 174.912C225.01 175.147 224.669 175.493 224.424 175.952C224.189 176.4 224.072 176.944 224.072 177.584V182H222.936V173.6H224.024V175.904L223.848 175.472C224.114 174.864 224.541 174.389 225.128 174.048C225.714 173.696 226.413 173.52 227.224 173.52ZM237.316 182.08C236.441 182.08 235.673 181.899 235.012 181.536C234.351 181.163 233.833 180.656 233.46 180.016C233.087 179.365 232.9 178.624 232.9 177.792C232.9 176.96 233.076 176.224 233.428 175.584C233.791 174.944 234.281 174.443 234.9 174.08C235.529 173.707 236.233 173.52 237.012 173.52C237.801 173.52 238.5 173.701 239.108 174.064C239.727 174.416 240.212 174.917 240.564 175.568C240.916 176.208 241.092 176.949 241.092 177.792C241.092 177.845 241.087 177.904 241.076 177.968C241.076 178.021 241.076 178.08 241.076 178.144H233.764V177.296H240.468L240.02 177.632C240.02 177.024 239.887 176.485 239.62 176.016C239.364 175.536 239.012 175.163 238.564 174.896C238.116 174.629 237.599 174.496 237.012 174.496C236.436 174.496 235.919 174.629 235.46 174.896C235.001 175.163 234.644 175.536 234.388 176.016C234.132 176.496 234.004 177.045 234.004 177.664V177.84C234.004 178.48 234.143 179.045 234.42 179.536C234.708 180.016 235.103 180.395 235.604 180.672C236.116 180.939 236.697 181.072 237.348 181.072C237.86 181.072 238.335 180.981 238.772 180.8C239.22 180.619 239.604 180.341 239.924 179.968L240.564 180.704C240.191 181.152 239.721 181.493 239.156 181.728C238.601 181.963 237.988 182.08 237.316 182.08ZM243.404 182V173.6H244.492V175.888L244.38 175.488C244.615 174.848 245.01 174.363 245.564 174.032C246.119 173.691 246.807 173.52 247.628 173.52V174.624C247.586 174.624 247.543 174.624 247.5 174.624C247.458 174.613 247.415 174.608 247.372 174.608C246.487 174.608 245.794 174.88 245.292 175.424C244.791 175.957 244.54 176.72 244.54 177.712V182H243.404ZM252.051 182.08C251.358 182.08 250.702 181.984 250.083 181.792C249.464 181.589 248.979 181.339 248.627 181.04L249.139 180.144C249.48 180.4 249.918 180.624 250.451 180.816C250.984 180.997 251.544 181.088 252.131 181.088C252.931 181.088 253.507 180.965 253.859 180.72C254.211 180.464 254.387 180.128 254.387 179.712C254.387 179.403 254.286 179.163 254.083 178.992C253.891 178.811 253.635 178.677 253.315 178.592C252.995 178.496 252.638 178.416 252.243 178.352C251.848 178.288 251.454 178.213 251.059 178.128C250.675 178.043 250.323 177.92 250.003 177.76C249.683 177.589 249.422 177.36 249.219 177.072C249.027 176.784 248.931 176.4 248.931 175.92C248.931 175.461 249.059 175.051 249.315 174.688C249.571 174.325 249.944 174.043 250.435 173.84C250.936 173.627 251.544 173.52 252.259 173.52C252.803 173.52 253.347 173.595 253.891 173.744C254.435 173.883 254.883 174.069 255.235 174.304L254.739 175.216C254.366 174.96 253.966 174.779 253.539 174.672C253.112 174.555 252.686 174.496 252.259 174.496C251.502 174.496 250.942 174.629 250.579 174.896C250.227 175.152 250.051 175.483 250.051 175.888C250.051 176.208 250.147 176.459 250.339 176.64C250.542 176.821 250.803 176.965 251.123 177.072C251.454 177.168 251.811 177.248 252.195 177.312C252.59 177.376 252.979 177.456 253.363 177.552C253.758 177.637 254.115 177.76 254.435 177.92C254.766 178.069 255.027 178.288 255.219 178.576C255.422 178.853 255.523 179.221 255.523 179.68C255.523 180.171 255.384 180.597 255.107 180.96C254.84 181.312 254.446 181.589 253.923 181.792C253.411 181.984 252.787 182.08 252.051 182.08ZM267.059 182V180.144L267.011 179.84V176.736C267.011 176.021 266.808 175.472 266.403 175.088C266.008 174.704 265.416 174.512 264.627 174.512C264.083 174.512 263.566 174.603 263.075 174.784C262.584 174.965 262.168 175.205 261.827 175.504L261.315 174.656C261.742 174.293 262.254 174.016 262.851 173.824C263.448 173.621 264.078 173.52 264.739 173.52C265.827 173.52 266.664 173.792 267.251 174.336C267.848 174.869 268.147 175.685 268.147 176.784V182H267.059ZM264.163 182.08C263.534 182.08 262.984 181.979 262.515 181.776C262.056 181.563 261.704 181.275 261.459 180.912C261.214 180.539 261.091 180.112 261.091 179.632C261.091 179.195 261.192 178.8 261.395 178.448C261.608 178.085 261.95 177.797 262.419 177.584C262.899 177.36 263.539 177.248 264.339 177.248H267.235V178.096H264.371C263.56 178.096 262.995 178.24 262.675 178.528C262.366 178.816 262.211 179.173 262.211 179.6C262.211 180.08 262.398 180.464 262.771 180.752C263.144 181.04 263.667 181.184 264.339 181.184C264.979 181.184 265.528 181.04 265.987 180.752C266.456 180.453 266.798 180.027 267.011 179.472L267.267 180.256C267.054 180.811 266.68 181.253 266.147 181.584C265.624 181.915 264.963 182.08 264.163 182.08ZM271.232 182V173.6H272.32V175.888L272.208 175.488C272.443 174.848 272.838 174.363 273.392 174.032C273.947 173.691 274.635 173.52 275.456 173.52V174.624C275.414 174.624 275.371 174.624 275.328 174.624C275.286 174.613 275.243 174.608 275.2 174.608C274.315 174.608 273.622 174.88 273.12 175.424C272.619 175.957 272.368 176.72 272.368 177.712V182H271.232ZM280.875 182.08C280.065 182.08 279.334 181.899 278.683 181.536C278.043 181.163 277.537 180.656 277.163 180.016C276.79 179.365 276.603 178.624 276.603 177.792C276.603 176.949 276.79 176.208 277.163 175.568C277.537 174.928 278.043 174.427 278.683 174.064C279.323 173.701 280.054 173.52 280.875 173.52C281.707 173.52 282.443 173.701 283.083 174.064C283.734 174.427 284.241 174.928 284.603 175.568C284.977 176.208 285.163 176.949 285.163 177.792C285.163 178.624 284.977 179.365 284.603 180.016C284.241 180.656 283.734 181.163 283.083 181.536C282.433 181.899 281.697 182.08 280.875 182.08ZM280.875 181.072C281.483 181.072 282.022 180.939 282.491 180.672C282.961 180.395 283.329 180.011 283.595 179.52C283.873 179.019 284.011 178.443 284.011 177.792C284.011 177.131 283.873 176.555 283.595 176.064C283.329 175.573 282.961 175.195 282.491 174.928C282.022 174.651 281.489 174.512 280.891 174.512C280.294 174.512 279.761 174.651 279.291 174.928C278.822 175.195 278.449 175.573 278.171 176.064C277.894 176.555 277.755 177.131 277.755 177.792C277.755 178.443 277.894 179.019 278.171 179.52C278.449 180.011 278.822 180.395 279.291 180.672C279.761 180.939 280.289 181.072 280.875 181.072ZM290.954 182.08C290.24 182.08 289.616 181.947 289.082 181.68C288.549 181.413 288.133 181.013 287.834 180.48C287.546 179.947 287.402 179.28 287.402 178.48V173.6H288.538V178.352C288.538 179.248 288.757 179.925 289.194 180.384C289.642 180.832 290.266 181.056 291.066 181.056C291.653 181.056 292.16 180.939 292.586 180.704C293.024 180.459 293.354 180.107 293.578 179.648C293.813 179.189 293.93 178.64 293.93 178V173.6H295.066V182H293.978V179.696L294.154 180.112C293.888 180.731 293.472 181.216 292.906 181.568C292.352 181.909 291.701 182.08 290.954 182.08ZM302.52 173.52C303.203 173.52 303.8 173.653 304.312 173.92C304.835 174.176 305.24 174.571 305.528 175.104C305.827 175.637 305.976 176.309 305.976 177.12V182H304.84V177.232C304.84 176.347 304.616 175.68 304.168 175.232C303.731 174.773 303.112 174.544 302.312 174.544C301.715 174.544 301.192 174.667 300.744 174.912C300.307 175.147 299.966 175.493 299.72 175.952C299.486 176.4 299.368 176.944 299.368 177.584V182H298.232V173.6H299.32V175.904L299.144 175.472C299.411 174.864 299.838 174.389 300.424 174.048C301.011 173.696 301.71 173.52 302.52 173.52ZM312.389 182.08C311.589 182.08 310.869 181.899 310.229 181.536C309.6 181.173 309.104 180.672 308.741 180.032C308.378 179.381 308.197 178.635 308.197 177.792C308.197 176.939 308.378 176.192 308.741 175.552C309.104 174.912 309.6 174.416 310.229 174.064C310.869 173.701 311.589 173.52 312.389 173.52C313.125 173.52 313.781 173.685 314.357 174.016C314.944 174.347 315.408 174.832 315.749 175.472C316.101 176.101 316.277 176.875 316.277 177.792C316.277 178.699 316.106 179.472 315.765 180.112C315.424 180.752 314.96 181.243 314.373 181.584C313.797 181.915 313.136 182.08 312.389 182.08ZM312.469 181.072C313.066 181.072 313.6 180.939 314.069 180.672C314.549 180.395 314.922 180.011 315.189 179.52C315.466 179.019 315.605 178.443 315.605 177.792C315.605 177.131 315.466 176.555 315.189 176.064C314.922 175.573 314.549 175.195 314.069 174.928C313.6 174.651 313.066 174.512 312.469 174.512C311.882 174.512 311.354 174.651 310.885 174.928C310.416 175.195 310.042 175.573 309.765 176.064C309.488 176.555 309.349 177.131 309.349 177.792C309.349 178.443 309.488 179.019 309.765 179.52C310.042 180.011 310.416 180.395 310.885 180.672C311.354 180.939 311.882 181.072 312.469 181.072ZM315.637 182V179.472L315.749 177.776L315.589 176.08V170.128H316.725V182H315.637ZM326.732 182.08C325.943 182.08 325.335 181.867 324.908 181.44C324.482 181.013 324.268 180.411 324.268 179.632V171.744H325.404V179.568C325.404 180.059 325.527 180.437 325.772 180.704C326.028 180.971 326.391 181.104 326.86 181.104C327.362 181.104 327.778 180.96 328.108 180.672L328.508 181.488C328.284 181.691 328.012 181.84 327.692 181.936C327.383 182.032 327.063 182.08 326.732 182.08ZM322.764 174.544V173.6H327.964V174.544H322.764ZM334.864 173.52C335.547 173.52 336.144 173.653 336.656 173.92C337.179 174.176 337.584 174.571 337.872 175.104C338.171 175.637 338.32 176.309 338.32 177.12V182H337.184V177.232C337.184 176.347 336.96 175.68 336.512 175.232C336.075 174.773 335.456 174.544 334.656 174.544C334.059 174.544 333.536 174.667 333.088 174.912C332.651 175.147 332.31 175.493 332.064 175.952C331.83 176.4 331.712 176.944 331.712 177.584V182H330.576V170.128H331.712V175.904L331.488 175.472C331.755 174.864 332.182 174.389 332.768 174.048C333.355 173.696 334.054 173.52 334.864 173.52ZM344.957 182.08C344.082 182.08 343.314 181.899 342.653 181.536C341.991 181.163 341.474 180.656 341.101 180.016C340.727 179.365 340.541 178.624 340.541 177.792C340.541 176.96 340.717 176.224 341.069 175.584C341.431 174.944 341.922 174.443 342.541 174.08C343.17 173.707 343.874 173.52 344.653 173.52C345.442 173.52 346.141 173.701 346.749 174.064C347.367 174.416 347.853 174.917 348.205 175.568C348.557 176.208 348.733 176.949 348.733 177.792C348.733 177.845 348.727 177.904 348.717 177.968C348.717 178.021 348.717 178.08 348.717 178.144H341.405V177.296H348.109L347.661 177.632C347.661 177.024 347.527 176.485 347.261 176.016C347.005 175.536 346.653 175.163 346.205 174.896C345.757 174.629 345.239 174.496 344.653 174.496C344.077 174.496 343.559 174.629 343.101 174.896C342.642 175.163 342.285 175.536 342.029 176.016C341.773 176.496 341.645 177.045 341.645 177.664V177.84C341.645 178.48 341.783 179.045 342.061 179.536C342.349 180.016 342.743 180.395 343.245 180.672C343.757 180.939 344.338 181.072 344.989 181.072C345.501 181.072 345.975 180.981 346.413 180.8C346.861 180.619 347.245 180.341 347.565 179.968L348.205 180.704C347.831 181.152 347.362 181.493 346.797 181.728C346.242 181.963 345.629 182.08 344.957 182.08ZM358.816 185.184C358.048 185.184 357.312 185.072 356.608 184.848C355.904 184.624 355.334 184.304 354.896 183.888L355.472 183.024C355.867 183.376 356.352 183.653 356.928 183.856C357.515 184.069 358.134 184.176 358.784 184.176C359.851 184.176 360.635 183.925 361.136 183.424C361.638 182.933 361.888 182.165 361.888 181.12V179.024L362.048 177.584L361.936 176.144V173.6H363.024V180.976C363.024 182.427 362.667 183.488 361.952 184.16C361.248 184.843 360.203 185.184 358.816 185.184ZM358.608 181.68C357.808 181.68 357.088 181.509 356.448 181.168C355.808 180.816 355.302 180.331 354.928 179.712C354.566 179.093 354.384 178.384 354.384 177.584C354.384 176.784 354.566 176.08 354.928 175.472C355.302 174.853 355.808 174.373 356.448 174.032C357.088 173.691 357.808 173.52 358.608 173.52C359.355 173.52 360.027 173.675 360.624 173.984C361.222 174.293 361.696 174.752 362.048 175.36C362.4 175.968 362.576 176.709 362.576 177.584C362.576 178.459 362.4 179.2 362.048 179.808C361.696 180.416 361.222 180.88 360.624 181.2C360.027 181.52 359.355 181.68 358.608 181.68ZM358.72 180.672C359.339 180.672 359.888 180.544 360.368 180.288C360.848 180.021 361.227 179.659 361.504 179.2C361.782 178.731 361.92 178.192 361.92 177.584C361.92 176.976 361.782 176.443 361.504 175.984C361.227 175.525 360.848 175.168 360.368 174.912C359.888 174.645 359.339 174.512 358.72 174.512C358.112 174.512 357.563 174.645 357.072 174.912C356.592 175.168 356.214 175.525 355.936 175.984C355.67 176.443 355.536 176.976 355.536 177.584C355.536 178.192 355.67 178.731 355.936 179.2C356.214 179.659 356.592 180.021 357.072 180.288C357.563 180.544 358.112 180.672 358.72 180.672ZM366.186 182V170.128H367.322V182H366.186ZM373.906 182.08C373.096 182.08 372.365 181.899 371.714 181.536C371.074 181.163 370.568 180.656 370.194 180.016C369.821 179.365 369.634 178.624 369.634 177.792C369.634 176.949 369.821 176.208 370.194 175.568C370.568 174.928 371.074 174.427 371.714 174.064C372.354 173.701 373.085 173.52 373.906 173.52C374.738 173.52 375.474 173.701 376.114 174.064C376.765 174.427 377.272 174.928 377.634 175.568C378.008 176.208 378.194 176.949 378.194 177.792C378.194 178.624 378.008 179.365 377.634 180.016C377.272 180.656 376.765 181.163 376.114 181.536C375.464 181.899 374.728 182.08 373.906 182.08ZM373.906 181.072C374.514 181.072 375.053 180.939 375.522 180.672C375.992 180.395 376.36 180.011 376.626 179.52C376.904 179.019 377.042 178.443 377.042 177.792C377.042 177.131 376.904 176.555 376.626 176.064C376.36 175.573 375.992 175.195 375.522 174.928C375.053 174.651 374.52 174.512 373.922 174.512C373.325 174.512 372.792 174.651 372.322 174.928C371.853 175.195 371.48 175.573 371.202 176.064C370.925 176.555 370.786 177.131 370.786 177.792C370.786 178.443 370.925 179.019 371.202 179.52C371.48 180.011 371.853 180.395 372.322 180.672C372.792 180.939 373.32 181.072 373.906 181.072ZM384.85 182.08C384.114 182.08 383.452 181.915 382.866 181.584C382.279 181.243 381.815 180.752 381.474 180.112C381.132 179.472 380.962 178.699 380.962 177.792C380.962 176.875 381.132 176.101 381.474 175.472C381.826 174.832 382.295 174.347 382.882 174.016C383.468 173.685 384.124 173.52 384.85 173.52C385.65 173.52 386.364 173.701 386.994 174.064C387.634 174.416 388.135 174.912 388.498 175.552C388.86 176.192 389.042 176.939 389.042 177.792C389.042 178.635 388.86 179.381 388.498 180.032C388.135 180.672 387.634 181.173 386.994 181.536C386.364 181.899 385.65 182.08 384.85 182.08ZM380.514 182V170.128H381.65V176.08L381.49 177.776L381.602 179.472V182H380.514ZM384.77 181.072C385.367 181.072 385.9 180.939 386.37 180.672C386.839 180.395 387.212 180.011 387.49 179.52C387.767 179.019 387.906 178.443 387.906 177.792C387.906 177.131 387.767 176.555 387.49 176.064C387.212 175.573 386.839 175.195 386.37 174.928C385.9 174.651 385.367 174.512 384.77 174.512C384.172 174.512 383.634 174.651 383.154 174.928C382.684 175.195 382.311 175.573 382.034 176.064C381.767 176.555 381.634 177.131 381.634 177.792C381.634 178.443 381.767 179.019 382.034 179.52C382.311 180.011 382.684 180.395 383.154 180.672C383.634 180.939 384.172 181.072 384.77 181.072ZM394.925 182.08C394.051 182.08 393.283 181.899 392.621 181.536C391.96 181.163 391.443 180.656 391.069 180.016C390.696 179.365 390.509 178.624 390.509 177.792C390.509 176.96 390.685 176.224 391.037 175.584C391.4 174.944 391.891 174.443 392.509 174.08C393.139 173.707 393.843 173.52 394.621 173.52C395.411 173.52 396.109 173.701 396.717 174.064C397.336 174.416 397.821 174.917 398.173 175.568C398.525 176.208 398.701 176.949 398.701 177.792C398.701 177.845 398.696 177.904 398.685 177.968C398.685 178.021 398.685 178.08 398.685 178.144H391.373V177.296H398.077L397.629 177.632C397.629 177.024 397.496 176.485 397.229 176.016C396.973 175.536 396.621 175.163 396.173 174.896C395.725 174.629 395.208 174.496 394.621 174.496C394.045 174.496 393.528 174.629 393.069 174.896C392.611 175.163 392.253 175.536 391.997 176.016C391.741 176.496 391.613 177.045 391.613 177.664V177.84C391.613 178.48 391.752 179.045 392.029 179.536C392.317 180.016 392.712 180.395 393.213 180.672C393.725 180.939 394.307 181.072 394.957 181.072C395.469 181.072 395.944 180.981 396.381 180.8C396.829 180.619 397.213 180.341 397.533 179.968L398.173 180.704C397.8 181.152 397.331 181.493 396.765 181.728C396.211 181.963 395.597 182.08 394.925 182.08ZM401.126 182.08C400.891 182.08 400.688 181.995 400.518 181.824C400.358 181.653 400.278 181.445 400.278 181.2C400.278 180.944 400.358 180.736 400.518 180.576C400.688 180.416 400.891 180.336 401.126 180.336C401.36 180.336 401.558 180.416 401.718 180.576C401.888 180.736 401.974 180.944 401.974 181.2C401.974 181.445 401.888 181.653 401.718 181.824C401.558 181.995 401.36 182.08 401.126 182.08Z" fill="#4F5665"/>
<path d="M711.488 144.035V141.995H709.265V138.825L709.19 138.851L707.103 139.579L707.062 139.593V141.995H703.767V140.657C703.767 140.034 703.889 139.557 704.13 139.239C704.369 138.925 704.712 138.765 705.148 138.765C705.462 138.765 705.787 138.85 706.114 139.016L706.196 139.057V136.91L706.158 136.894C705.852 136.769 705.437 136.706 704.923 136.706C704.275 136.706 703.686 136.866 703.172 137.185C702.658 137.504 702.254 137.959 701.97 138.539C701.688 139.117 701.545 139.785 701.545 140.524V141.995H699.997V144.035H701.545V152.626H703.767V144.035H707.062V149.494C707.062 151.743 707.993 152.882 709.828 152.882C710.13 152.882 710.447 152.842 710.772 152.763C711.102 152.682 711.326 152.601 711.459 152.515L711.488 152.495V150.437L711.398 150.505C711.277 150.597 711.127 150.671 710.951 150.727C710.774 150.784 710.626 150.812 710.512 150.812C710.082 150.812 709.764 150.68 709.566 150.419C709.367 150.157 709.265 149.697 709.265 149.053V144.035H711.488ZM695.036 150.812C694.229 150.812 693.594 150.508 693.145 149.907C692.695 149.304 692.466 148.444 692.466 147.352C692.466 146.225 692.695 145.342 693.146 144.728C693.594 144.119 694.224 143.809 695.018 143.809C695.788 143.809 696.401 144.105 696.84 144.688C697.282 145.275 697.506 146.15 697.506 147.29C697.506 148.445 697.295 149.331 696.88 149.924C696.467 150.513 695.847 150.812 695.036 150.812ZM695.135 141.739C693.596 141.739 692.374 142.253 691.503 143.266C690.632 144.279 690.191 145.681 690.191 147.434C690.191 149.098 690.622 150.437 691.472 151.412C692.322 152.388 693.478 152.882 694.91 152.882C696.401 152.882 697.599 152.361 698.47 151.334C699.34 150.308 699.781 148.919 699.781 147.208C699.781 145.517 699.368 144.169 698.551 143.2C697.733 142.231 696.584 141.739 695.135 141.739ZM686.609 141.739C685.562 141.739 684.696 142.044 684.035 142.646C683.37 143.25 683.032 144.044 683.032 145.004C683.032 145.503 683.105 145.946 683.249 146.322C683.393 146.7 683.616 147.032 683.913 147.31C684.207 147.587 684.661 147.877 685.263 148.171C685.769 148.408 686.146 148.609 686.386 148.767C686.62 148.922 686.787 149.078 686.881 149.23C686.972 149.378 687.018 149.582 687.018 149.833C687.018 150.547 686.549 150.894 685.583 150.894C685.225 150.894 684.816 150.809 684.368 150.641C683.92 150.473 683.502 150.232 683.125 149.922L683.032 149.847V152.284L683.066 152.302C683.381 152.467 683.777 152.607 684.244 152.716C684.71 152.826 685.134 152.882 685.502 152.882C686.638 152.882 687.552 152.576 688.219 151.971C688.891 151.362 689.231 150.55 689.231 149.556C689.231 148.84 689.048 148.225 688.687 147.73C688.328 147.238 687.706 146.787 686.837 146.388C686.146 146.072 685.703 145.809 685.52 145.607C685.344 145.413 685.254 145.137 685.254 144.789C685.254 144.479 685.365 144.232 685.591 144.031C685.82 143.83 686.138 143.727 686.537 143.727C686.907 143.727 687.286 143.794 687.662 143.924C688.039 144.055 688.369 144.23 688.645 144.444L688.736 144.514V142.202L688.701 142.185C688.447 142.061 688.111 141.954 687.703 141.868C687.297 141.783 686.929 141.739 686.609 141.739ZM677.24 150.812C676.434 150.812 675.798 150.508 675.35 149.907C674.899 149.304 674.671 148.445 674.671 147.352C674.671 146.225 674.9 145.342 675.351 144.728C675.799 144.119 676.428 143.809 677.222 143.809C677.993 143.809 678.606 144.105 679.045 144.688C679.487 145.275 679.711 146.15 679.711 147.29C679.711 148.445 679.5 149.331 679.084 149.924C678.672 150.513 678.052 150.812 677.24 150.812ZM677.34 141.739C675.801 141.739 674.579 142.253 673.708 143.266C672.837 144.279 672.395 145.681 672.395 147.434C672.395 149.099 672.827 150.437 673.677 151.412C674.527 152.388 675.683 152.882 677.114 152.882C678.605 152.882 679.803 152.361 680.674 151.334C681.545 150.308 681.986 148.919 681.986 147.208C681.986 145.517 681.572 144.169 680.755 143.2C679.938 142.231 678.788 141.739 677.34 141.739ZM669.023 143.836V141.995H666.828V152.625H669.023V147.188C669.023 146.263 669.207 145.504 669.57 144.93C669.928 144.363 670.406 144.076 670.989 144.076C671.187 144.076 671.409 144.113 671.649 144.186C671.887 144.259 672.059 144.339 672.161 144.422L672.253 144.498V141.977L672.218 141.96C672.013 141.861 671.724 141.811 671.358 141.811C670.807 141.811 670.313 142.013 669.89 142.41C669.519 142.76 669.251 143.239 669.046 143.836H669.023ZM662.898 141.739C661.891 141.739 660.993 141.985 660.229 142.47C659.464 142.956 658.872 143.65 658.469 144.532C658.068 145.413 657.864 146.441 657.864 147.587C657.864 148.592 658.062 149.514 658.452 150.326C658.842 151.139 659.395 151.776 660.094 152.218C660.793 152.659 661.6 152.882 662.493 152.882C663.536 152.882 664.427 152.644 665.141 152.176L665.17 152.157V149.866L665.077 149.943C664.754 150.211 664.393 150.426 664.004 150.58C663.616 150.734 663.262 150.812 662.952 150.812C662.091 150.812 661.4 150.505 660.898 149.9C660.395 149.294 660.14 148.443 660.14 147.372C660.14 146.294 660.406 145.421 660.93 144.777C661.452 144.135 662.145 143.809 662.988 143.809C663.71 143.809 664.413 144.088 665.078 144.637L665.17 144.713V142.3L665.14 142.281C664.89 142.121 664.548 141.989 664.125 141.889C663.703 141.79 663.29 141.739 662.898 141.739ZM656.353 141.995H654.158V152.625H656.353V141.995ZM655.278 137.467C654.917 137.467 654.602 137.607 654.343 137.885C654.083 138.163 653.951 138.514 653.951 138.927C653.951 139.334 654.081 139.679 654.339 139.95C654.594 140.22 654.91 140.357 655.278 140.357C655.645 140.357 655.963 140.22 656.221 139.95C656.482 139.679 656.614 139.334 656.614 138.927C656.614 138.528 656.485 138.181 656.232 137.896C655.979 137.611 655.658 137.467 655.278 137.467ZM649.802 141.211V152.625H652.042V137.792H648.942L645.002 148.81L641.178 137.792H637.952V152.625H640.057V141.21H640.129L644.167 152.625H645.755L649.73 141.211H649.802Z" fill="#4F5665"/>
<path d="M672.731 116.301H662.407V104.538H672.731V116.301Z" fill="#4F5665"/>
<path d="M684.131 116.301H673.807V104.538H684.131V116.301Z" fill="#4F5665"/>
<path d="M672.731 129.294H662.407V117.531H672.731V129.294Z" fill="#4F5665"/>
<path d="M684.131 129.294H673.807V117.531H684.131V129.294Z" fill="#4F5665"/>
<path d="M791.374 108.254L784.881 113.062L791.374 117.869L784.881 122.677L778.389 117.829L784.881 113.022L778.389 108.254L784.881 103.446L791.374 108.254ZM784.847 124.199L791.339 119.392L797.832 124.199L791.339 129.007L784.847 124.199ZM791.374 117.829L797.867 113.022L791.374 108.254L797.832 103.446L804.325 108.254L797.832 113.062L804.325 117.869L797.832 122.677L791.374 117.829Z" fill="#4F5665"/>
<path d="M754.54 136.503H759.286C762.315 136.503 764.813 138.507 764.813 143.087V144.053C764.813 148.669 762.471 150.744 759.38 150.744H754.54V136.503ZM757.194 139.079V148.132H759.224C760.941 148.132 762.096 146.844 762.096 143.981V143.23C762.096 140.367 760.879 139.079 759.13 139.079H757.194ZM766.218 139.222H768.341L768.685 141.906C769.09 140.081 770.121 139.115 771.994 139.115H772.65V142.192H771.557C769.403 142.192 768.872 143.051 768.872 145.484V150.78H766.249V139.222H766.218ZM773.181 145.234V144.911C773.181 141.047 775.335 138.936 778.27 138.936C781.268 138.936 783.36 141.047 783.36 144.911V145.234C783.36 149.026 781.33 151.066 778.27 151.066C775.023 151.03 773.181 149.026 773.181 145.234ZM780.675 145.198V144.911C780.675 142.765 779.738 141.476 778.239 141.476C776.772 141.476 775.804 142.657 775.804 144.911V145.198C775.804 147.273 776.74 148.454 778.239 148.454C779.738 148.418 780.675 147.273 780.675 145.198ZM784.734 139.222H786.919L787.169 141.405C787.7 139.938 788.824 138.936 790.479 138.936C793.039 138.936 794.726 141.047 794.726 144.947V145.269C794.726 149.062 792.852 151.066 790.479 151.066C788.887 151.066 787.794 150.243 787.263 148.919V154.751H784.703L784.734 139.222ZM792.071 145.198V144.947C792.071 142.657 791.041 141.512 789.667 141.512C788.2 141.512 787.232 142.8 787.232 144.947V145.162C787.232 147.202 788.168 148.49 789.636 148.49C791.135 148.454 792.071 147.345 792.071 145.198ZM798.597 148.633L798.379 150.744H796.131V135.358H798.691V141.262C799.253 139.759 800.377 138.936 801.97 138.936C804.374 138.972 806.154 140.868 806.154 144.697V145.055C806.154 148.883 804.467 151.066 801.907 151.066C800.221 151.03 799.128 150.136 798.597 148.633ZM803.468 145.055V144.768C803.468 142.657 802.469 141.476 801.064 141.476C799.628 141.476 798.629 142.8 798.629 144.804V145.055C798.629 147.202 799.596 148.454 801.033 148.454C802.563 148.454 803.468 147.345 803.468 145.055ZM807.278 145.234V144.911C807.278 141.047 809.432 138.936 812.367 138.936C815.365 138.936 817.457 141.047 817.457 144.911V145.234C817.457 149.026 815.396 151.066 812.367 151.066C809.12 151.03 807.278 149.026 807.278 145.234ZM814.803 145.198V144.911C814.803 142.765 813.866 141.476 812.367 141.476C810.9 141.476 809.932 142.657 809.932 144.911V145.198C809.932 147.273 810.868 148.454 812.367 148.454C813.866 148.418 814.803 147.273 814.803 145.198ZM820.891 144.768L817.363 139.222H820.392L822.421 142.693L824.482 139.222H827.48L823.889 144.733L827.667 150.744H824.701L822.39 146.915L820.142 150.744H817.051L820.891 144.768Z" fill="#4F5665"/>
<path d="M918.163 108.56C920.256 107.389 921.294 107.542 921.317 108.73C921.345 110.272 921.145 112.323 921.001 113.807C920.224 121.873 918.926 128.464 918.828 136.746C922.247 126.661 925.113 119.652 928.806 111.019C929.978 108.268 930.727 108.783 931.69 108.295C935.439 106.392 935.579 107.558 935.09 109.885C933.272 118.503 928.615 145.636 927.904 149.814C927.699 151.023 926.545 150.511 926.248 150.038C924.913 147.934 923.406 147.901 923.573 146.502C924.41 139.536 927.424 122.059 928.211 117.941C924.205 127.296 920.052 138.992 917.917 145.623C917.465 147.031 916.642 146.928 916.13 145.898C915.409 144.45 914.009 143.711 913.777 142.001C913.046 136.563 914.614 126.199 914.832 119.642C912.651 126.804 908.99 140.711 907.385 146.994C906.725 149.594 904.52 149.17 905.106 146.636C907.543 136.092 912.795 117.443 915.065 110.738C915.6 109.159 917 109.212 918.163 108.56Z" fill="#4F5665"/>
<path d="M904.868 107.267C904.161 107.071 902.109 108.332 900.849 108.581C900.449 108.661 900.067 109.143 899.932 109.488C897.914 114.772 896.104 119.809 894.536 124.397C892.532 124.787 890.187 125.301 887.564 125.972C889.443 120.48 891.341 115.063 893.192 109.853C894.104 107.288 891.704 107.044 890.773 109.641C889.564 113.017 887.299 119.343 884.791 126.716C882.949 127.23 880.996 127.818 878.953 128.49C877.47 128.979 877.409 129.429 878.051 130.443C878.405 131.008 879.135 130.951 879.47 131.353C880.335 132.395 880.861 133.642 882.41 133.831C881.028 138.042 879.646 142.384 878.395 146.565C877.609 149.19 879.847 149.727 880.707 146.95C882.093 142.473 883.554 137.942 885.056 133.424C886.308 133.093 889.336 132.35 892.131 131.659C889.913 138.588 888.452 143.85 887.899 146.412C887.796 146.904 887.968 147.178 888.061 147.379C888.81 148.621 889.522 148.671 890.485 150.207C890.745 150.625 891.62 150.851 891.918 149.82C893.974 142.744 896.09 136.105 898.062 130.153C898.881 129.949 900.356 129.544 901.258 128.01C902.863 125.286 903.323 125.839 903.709 125.011C904.193 123.971 903.872 122.996 902.16 123.237C902.16 123.237 901.514 123.289 900.318 123.445C902.216 117.877 903.877 113.155 905.072 109.556C905.482 108.337 905.533 107.447 904.868 107.267Z" fill="#4F5665"/>
<path d="M902.068 143.378C902.51 144.65 903.891 144.265 903.366 142.729C902.831 141.164 901.5 136.454 901.151 134.937C900.677 132.892 902.733 133.451 901.691 134.788C900.798 135.938 900.203 136.398 898.551 138.584C896.956 140.694 897.388 143.432 899.096 144.037C901.021 144.719 902.719 142.301 903.77 140.528C904.789 138.81 903.803 137.802 902.775 138.818C902.114 139.471 901.352 140.473 900.579 141.014C899.951 141.449 899.458 140.982 900.296 139.668C901.268 138.148 902.356 136.874 903.166 135.437C904.817 132.509 901.551 130.821 900.147 132.723C899.393 133.737 899.584 134.732 899.789 135.586C900.119 136.955 901.347 141.323 902.068 143.378Z" fill="#4F5665"/>
<path d="M1025.05 121.663C1025.05 122.723 1024.27 123.591 1023.33 123.591C1022.38 123.591 1021.61 122.723 1021.61 121.663C1021.61 120.603 1022.34 119.735 1023.33 119.735C1024.32 119.759 1025.05 120.627 1025.05 121.663ZM1018 125.518C1018 125.687 1018 126 1018 126C1018 126 1017.18 124.82 1015.44 124.82C1012.58 124.82 1010.32 127.277 1010.32 130.651C1010.32 134.024 1012.54 136.482 1015.44 136.482C1017.2 136.482 1018 135.277 1018 135.277V135.783C1018 136.024 1018.15 136.193 1018.36 136.193H1020.49V125.109C1020.49 125.109 1018.53 125.109 1018.36 125.109C1018.15 125.109 1018 125.326 1018 125.518ZM1018 132.626C1017.61 133.277 1016.81 133.831 1015.87 133.831C1014.19 133.831 1012.9 132.651 1012.9 130.651C1012.9 128.651 1014.19 127.47 1015.87 127.47C1016.79 127.47 1017.63 128.048 1018 128.675V132.626ZM1022.08 125.109H1024.62V136.193H1022.08V125.109ZM1059.8 124.82C1058.06 124.82 1057.24 126 1057.24 126V119.784H1054.71V136.217C1054.71 136.217 1056.66 136.217 1056.84 136.217C1057.05 136.217 1057.2 136 1057.2 135.807V135.301C1057.2 135.301 1058.02 136.506 1059.76 136.506C1062.62 136.506 1064.87 134.024 1064.87 130.675C1064.9 127.301 1062.64 124.82 1059.8 124.82ZM1059.39 133.807C1058.43 133.807 1057.65 133.253 1057.27 132.602V128.651C1057.65 128.072 1058.51 127.446 1059.39 127.446C1061.07 127.446 1062.36 128.627 1062.36 130.627C1062.36 132.626 1061.07 133.807 1059.39 133.807ZM1053.42 129.615V136.217H1050.88V129.952C1050.88 128.121 1050.37 127.374 1048.93 127.374C1048.15 127.374 1047.38 127.807 1046.88 128.458V136.193H1044.35V125.109H1046.35C1046.56 125.109 1046.71 125.326 1046.71 125.518V126C1047.44 125.133 1048.43 124.82 1049.4 124.82C1050.5 124.82 1051.42 125.181 1052.17 125.88C1053.07 126.699 1053.42 127.759 1053.42 129.615ZM1038.22 124.82C1036.48 124.82 1035.66 126 1035.66 126V119.784H1033.13V136.217C1033.13 136.217 1035.08 136.217 1035.26 136.217C1035.47 136.217 1035.62 136 1035.62 135.807V135.301C1035.62 135.301 1036.44 136.506 1038.18 136.506C1041.04 136.506 1043.3 134.024 1043.3 130.675C1043.34 127.301 1041.1 124.82 1038.22 124.82ZM1037.81 133.807C1036.85 133.807 1036.07 133.253 1035.69 132.602V128.651C1036.07 128.072 1036.93 127.446 1037.81 127.446C1039.49 127.446 1040.78 128.627 1040.78 130.627C1040.78 132.626 1039.49 133.807 1037.81 133.807ZM1030.96 124.82C1031.73 124.82 1032.12 124.964 1032.12 124.964V127.59C1032.12 127.59 1030.01 126.795 1028.7 128.482V136.241H1026.16V125.109C1026.16 125.109 1028.12 125.109 1028.29 125.109C1028.51 125.109 1028.66 125.326 1028.66 125.518V126C1029.15 125.374 1030.18 124.82 1030.96 124.82ZM1004.74 135.205C1004.61 134.843 1004.48 134.458 1004.35 134.144C1004.13 133.614 1003.92 133.108 1003.75 132.651L1003.72 132.626C1001.92 128.193 999.964 123.711 997.9 119.302L997.814 119.133C997.599 118.699 997.384 118.217 997.191 117.735C996.933 117.205 996.675 116.651 996.245 116.121C995.407 114.94 994.203 114.29 992.914 114.29C991.602 114.29 990.42 114.94 989.539 116.049C989.152 116.579 988.851 117.133 988.593 117.663C988.378 118.145 988.163 118.603 987.97 119.061L987.884 119.229C985.864 123.663 983.886 128.145 982.059 132.554L982.038 132.602C981.844 133.084 981.651 133.566 981.436 134.096C981.307 134.41 981.178 134.771 981.049 135.156C980.705 136.241 980.598 137.277 980.727 138.337C981.006 140.554 982.339 142.409 984.144 143.228C984.832 143.542 985.541 143.71 986.272 143.71C986.487 143.71 986.745 143.686 986.96 143.662C987.82 143.542 988.722 143.228 989.582 142.65C990.657 141.975 991.688 140.988 992.849 139.59C994.01 141.012 995.063 141.975 996.116 142.65C996.976 143.204 997.879 143.542 998.738 143.662C998.953 143.686 999.211 143.71 999.426 143.71C1000.16 143.71 1000.91 143.566 1001.55 143.228C1003.4 142.409 1004.69 140.506 1004.97 138.337C1005.19 137.325 1005.08 136.289 1004.74 135.205ZM992.871 136.723C991.452 134.723 990.528 132.819 990.205 131.229C990.076 130.554 990.055 129.952 990.119 129.422C990.162 128.94 990.334 128.53 990.549 128.193C991.044 127.398 991.882 126.892 992.871 126.892C993.859 126.892 994.719 127.374 995.192 128.193C995.407 128.554 995.557 128.964 995.622 129.422C995.708 129.952 995.665 130.578 995.536 131.229C995.213 132.819 994.289 134.699 992.871 136.723ZM1003.36 138.12C1003.17 139.662 1002.26 140.988 1000.97 141.566C1000.35 141.855 999.663 141.951 998.975 141.855C998.309 141.759 997.664 141.542 996.976 141.084C996.03 140.506 995.084 139.59 993.967 138.217C995.708 135.831 996.761 133.638 997.148 131.687C997.341 130.771 997.363 129.952 997.277 129.181C997.169 128.434 996.933 127.759 996.568 127.181C995.751 125.856 994.375 125.085 992.849 125.085C991.323 125.085 989.947 125.88 989.131 127.181C988.765 127.759 988.529 128.458 988.421 129.181C988.314 129.952 988.335 130.795 988.55 131.687C988.937 133.638 990.033 135.855 991.731 138.241C990.657 139.59 989.69 140.506 988.722 141.108C988.034 141.542 987.39 141.783 986.723 141.879C986.014 141.975 985.326 141.855 984.724 141.59C983.435 141.012 982.511 139.662 982.339 138.144C982.253 137.397 982.317 136.674 982.575 135.855C982.661 135.566 982.79 135.277 982.919 134.916C983.112 134.434 983.306 133.952 983.521 133.446L983.542 133.397C985.348 129.012 987.304 124.506 989.324 120.145L989.41 119.976C989.625 119.543 989.84 119.061 990.033 118.627C990.248 118.145 990.485 117.711 990.764 117.326C991.323 116.627 992.054 116.242 992.871 116.242C993.687 116.242 994.418 116.627 994.977 117.326C995.256 117.711 995.493 118.145 995.708 118.627C995.923 119.061 996.138 119.543 996.331 119.976L996.417 120.145C998.416 124.53 1000.37 129.036 1002.18 133.422V133.446C1002.39 133.928 1002.56 134.458 1002.78 134.916C1002.91 135.277 1003.04 135.566 1003.12 135.855C1003.38 136.602 1003.47 137.349 1003.36 138.12Z" fill="#4F5665"/>
<path d="M1112.84 136.845C1109.21 136.845 1106.26 133.468 1106.26 129.303C1106.26 125.138 1109.21 121.765 1112.84 121.765C1114.12 121.765 1115.32 122.183 1116.33 122.909L1112.84 129.303L1119.4 124.96C1118.69 123.658 1117.67 122.535 1116.43 121.684C1114.86 120.604 1112.67 119.936 1110.25 119.936C1106.79 119.936 1103.76 121.374 1102.07 123.528C1100.82 125.12 1100.08 127.123 1100.08 129.303C1100.08 131.484 1100.82 133.49 1102.07 135.083C1103.77 137.239 1106.75 138.669 1110.15 138.669C1113.54 138.669 1116.53 137.238 1118.22 135.083C1118.32 134.964 1118.41 134.844 1118.49 134.72L1118.24 133.621C1117.04 135.569 1115.07 136.845 1112.84 136.845Z" fill="#4F5665"/>
<path d="M1134.6 138.215L1131.85 126.437C1131.4 124.534 1129.89 123.135 1128.09 123.135C1127.62 123.135 1127.18 123.231 1126.76 123.404L1120.83 125.875H1126.93L1127.97 130.337C1126.96 129.339 1125.64 128.732 1124.2 128.732C1121.34 128.732 1119.02 130.931 1119.02 133.644C1119.02 136.357 1121.34 138.559 1124.2 138.559C1126.26 138.559 1128.09 137.402 1129.21 135.626L1129.82 138.215H1134.6ZM1126.2 136.386C1124.88 136.386 1123.81 135.16 1123.81 133.644C1123.81 132.13 1124.88 130.903 1126.2 130.903C1127.52 130.903 1128.59 132.13 1128.59 133.644C1128.59 135.16 1127.52 136.386 1126.2 136.386Z" fill="#4F5665"/>
<path d="M1145.84 123.137C1145.47 123.137 1145.13 123.229 1144.83 123.393L1141.02 125.427C1140.83 124.127 1139.85 123.137 1138.66 123.137C1138.3 123.137 1137.96 123.229 1137.65 123.393L1133 125.875H1136.27V138.215H1141.05V127.248C1141.05 126.491 1141.59 125.875 1142.25 125.875C1142.91 125.875 1143.44 126.491 1143.44 127.248V138.215H1148.23V125.875C1148.23 124.362 1147.16 123.137 1145.84 123.137" fill="#4F5665"/>
<path d="M1175.84 123.137C1175.48 123.137 1175.14 123.229 1174.83 123.393L1171.02 125.427C1170.84 124.127 1169.85 123.137 1168.66 123.137C1168.3 123.137 1167.96 123.229 1167.65 123.393L1163 125.875H1166.27V138.215H1171.06V127.248C1171.06 126.491 1171.59 125.875 1172.25 125.875C1172.91 125.875 1173.45 126.491 1173.45 127.248V138.215H1178.24V125.875C1178.24 124.362 1177.16 123.137 1175.84 123.137" fill="#4F5665"/>
<path d="M1163.78 130.903C1163.78 135.192 1160.74 138.669 1157 138.669C1153.26 138.669 1150.22 135.192 1150.22 130.903C1150.22 126.615 1153.26 123.137 1157 123.137C1160.74 123.137 1163.78 126.615 1163.78 130.903ZM1157.28 125.494C1157.07 124.58 1156.25 124.038 1155.45 124.283C1154.66 124.528 1154.18 125.468 1154.39 126.382L1156.72 136.312C1156.93 137.227 1157.75 137.769 1158.55 137.527C1159.35 137.279 1159.82 136.34 1159.61 135.426L1157.28 125.494Z" fill="#4F5665"/>
<path d="M1254.31 101.045H1255.84C1263.26 101.522 1268.56 104.732 1272.48 109.232C1276.41 113.732 1279.31 119.667 1279.7 128.159V129.841C1279.32 138.468 1276.37 144.162 1272.48 148.795C1268.4 153.196 1263.39 156.53 1255.81 156.955H1254.31C1246.89 156.477 1241.59 153.267 1237.67 148.767C1233.74 144.267 1230.84 138.333 1230.45 129.841V128.159C1230.47 128.152 1230.48 128.135 1230.48 128.103C1230.85 119.643 1233.77 113.647 1237.67 109.204C1241.59 104.741 1246.94 101.507 1254.31 101.045ZM1249.49 105.054C1248.02 105.5 1246.71 106.067 1245.52 106.737C1241.9 108.775 1238.92 111.691 1236.83 115.429C1234.79 119.077 1233.03 123.771 1233.28 129.925C1233.44 133.805 1234.22 137.069 1235.45 139.851C1237.88 145.344 1241.57 149.392 1246.68 151.852C1249.21 153.068 1252.34 153.922 1255.86 153.73C1259.25 153.547 1262.18 152.681 1264.6 151.291C1269.36 148.566 1273.11 144.362 1275.19 138.561C1276.24 135.627 1277.04 132.237 1276.87 128.13C1276.54 120.351 1273.76 115.077 1270.1 111.055C1268.28 109.064 1266.1 107.371 1263.52 106.148C1261.02 104.961 1257.77 104.08 1254.29 104.269C1252.58 104.362 1250.96 104.605 1249.49 105.054Z" fill="#4F5665"/>
<path d="M1252.81 121.738C1253.59 122.326 1254.39 122.894 1255.12 123.532C1253.46 124.722 1251.83 125.949 1250.18 127.149C1250.43 127.368 1250.71 127.547 1250.96 127.766C1252.63 126.562 1254.3 125.36 1255.96 124.149C1256.71 124.674 1257.44 125.213 1258.13 125.803C1256.46 127.001 1254.85 128.262 1253.2 129.476C1253.45 129.703 1253.75 129.866 1254.02 130.065C1255.72 128.876 1257.39 127.639 1259.06 126.42V122.439H1262.76V130.374C1263.8 130.439 1264.95 130.383 1266.03 130.402V134.131H1259.06V130.345C1257.02 131.762 1254.92 133.364 1252.86 134.86C1250.71 133.274 1248.65 131.599 1246.51 130.009C1245.89 132.248 1244.41 133.932 1241.98 134.131C1240.46 134.255 1238.73 134.038 1236.98 134.131V122.439C1239.17 122.604 1241.57 122.105 1243.31 122.719C1244.84 123.262 1245.93 124.656 1246.43 126.392C1248.58 124.86 1250.68 123.288 1252.81 121.738ZM1240.5 126.196V130.402C1241.38 130.407 1242.05 130.465 1242.57 130.009C1243.34 129.332 1243.5 127.652 1242.81 126.757C1242.36 126.159 1241.59 126.034 1240.52 126.112C1240.49 126.116 1240.5 126.156 1240.5 126.196ZM1266.99 122.439H1270.69V130.402H1273.94V134.131H1266.97V122.523C1266.97 122.483 1266.96 122.443 1266.99 122.439Z" fill="#4F5665"/>
</svg>
