<svg width="14" height="14" viewBox="0 0 14 14" fill="none" xmlns="http://www.w3.org/2000/svg">
<path fill-rule="evenodd" clip-rule="evenodd" d="M5.7916 6.66664C5.7916 7.34864 5.23893 7.90131 4.55693 7.90131C3.87493 7.90131 3.32227 7.34864 3.32227 6.66664C3.32227 5.98464 3.87493 5.43198 4.55693 5.43198H4.55893C5.24027 5.43264 5.7916 5.98531 5.7916 6.66664Z" stroke="#4F5665" stroke-linecap="round" stroke-linejoin="round"/>
<path d="M5.79492 6.66666H10.0069V7.90132" stroke="#4F5665" stroke-linecap="round" stroke-linejoin="round"/>
<path d="M8.12044 7.90132V6.66666" stroke="#4F5665" stroke-linecap="round" stroke-linejoin="round"/>
<path fill-rule="evenodd" clip-rule="evenodd" d="M0.5 6.66667C0.5 2.042 2.042 0.5 6.66667 0.5C11.2913 0.5 12.8333 2.042 12.8333 6.66667C12.8333 11.2913 11.2913 12.8333 6.66667 12.8333C2.042 12.8333 0.5 11.2913 0.5 6.66667Z" stroke="#4F5665" stroke-linecap="round" stroke-linejoin="round"/>
</svg>
