<svg width="229" height="22" viewBox="0 0 229 22" fill="none" xmlns="http://www.w3.org/2000/svg">
<path d="M8.31525 17.204C7.11258 17.204 6.00525 17.006 4.99325 16.61C3.98125 16.214 3.10125 15.664 2.35325 14.96C1.60525 14.2413 1.02592 13.4053 0.61525 12.452C0.204583 11.484 -0.000749923 10.428 -0.000749923 9.284C-0.000749923 8.14 0.204583 7.09133 0.61525 6.138C1.02592 5.17 1.60525 4.334 2.35325 3.63C3.10125 2.91133 3.98125 2.354 4.99325 1.958C6.00525 1.562 7.10525 1.364 8.29325 1.364C9.49592 1.364 10.5959 1.562 11.5933 1.958C12.6053 2.354 13.4853 2.91133 14.2333 3.63C14.9813 4.334 15.5606 5.17 15.9713 6.138C16.3819 7.09133 16.5873 8.14 16.5873 9.284C16.5873 10.428 16.3819 11.484 15.9713 12.452C15.5606 13.42 14.9813 14.256 14.2333 14.96C13.4853 15.664 12.6053 16.214 11.5933 16.61C10.5959 17.006 9.50325 17.204 8.31525 17.204ZM8.29325 14.696C9.07058 14.696 9.78925 14.564 10.4493 14.3C11.1093 14.036 11.6813 13.662 12.1653 13.178C12.6493 12.6793 13.0233 12.1073 13.2873 11.462C13.5659 10.802 13.7053 10.076 13.7053 9.284C13.7053 8.492 13.5659 7.77333 13.2873 7.128C13.0233 6.468 12.6493 5.896 12.1653 5.412C11.6813 4.91333 11.1093 4.532 10.4493 4.268C9.78925 4.004 9.07058 3.872 8.29325 3.872C7.51592 3.872 6.79725 4.004 6.13725 4.268C5.49192 4.532 4.91992 4.91333 4.42125 5.412C3.93725 5.896 3.55592 6.468 3.27725 7.128C3.01325 7.77333 2.88125 8.492 2.88125 9.284C2.88125 10.0613 3.01325 10.78 3.27725 11.44C3.55592 12.1 3.93725 12.6793 4.42125 13.178C4.90525 13.662 5.47725 14.036 6.13725 14.3C6.79725 14.564 7.51592 14.696 8.29325 14.696ZM24.6348 17.138C23.4321 17.138 22.3614 16.8813 21.4228 16.368C20.4841 15.84 19.7434 15.1213 19.2008 14.212C18.6581 13.3027 18.3868 12.2687 18.3868 11.11C18.3868 9.93667 18.6581 8.90267 19.2008 8.008C19.7434 7.09867 20.4841 6.38733 21.4228 5.874C22.3614 5.36067 23.4321 5.104 24.6348 5.104C25.8521 5.104 26.9301 5.36067 27.8688 5.874C28.8221 6.38733 29.5628 7.09133 30.0908 7.986C30.6334 8.88067 30.9048 9.922 30.9048 11.11C30.9048 12.2687 30.6334 13.3027 30.0908 14.212C29.5628 15.1213 28.8221 15.84 27.8688 16.368C26.9301 16.8813 25.8521 17.138 24.6348 17.138ZM24.6348 14.784C25.3094 14.784 25.9108 14.6373 26.4388 14.344C26.9668 14.0507 27.3774 13.6253 27.6708 13.068C27.9788 12.5107 28.1328 11.858 28.1328 11.11C28.1328 10.3473 27.9788 9.69467 27.6708 9.152C27.3774 8.59467 26.9668 8.16933 26.4388 7.876C25.9108 7.58267 25.3168 7.436 24.6568 7.436C23.9821 7.436 23.3808 7.58267 22.8528 7.876C22.3394 8.16933 21.9288 8.59467 21.6208 9.152C21.3128 9.69467 21.1588 10.3473 21.1588 11.11C21.1588 11.858 21.3128 12.5107 21.6208 13.068C21.9288 13.6253 22.3394 14.0507 22.8528 14.344C23.3808 14.6373 23.9748 14.784 24.6348 14.784ZM40.0465 17.138C39.0931 17.138 38.2205 16.918 37.4285 16.478C36.6511 16.038 36.0278 15.378 35.5585 14.498C35.1038 13.6033 34.8765 12.474 34.8765 11.11C34.8765 9.73133 35.0965 8.602 35.5365 7.722C35.9911 6.842 36.6071 6.18933 37.3845 5.764C38.1618 5.324 39.0491 5.104 40.0465 5.104C41.2051 5.104 42.2245 5.35333 43.1045 5.852C43.9991 6.35067 44.7031 7.04733 45.2165 7.942C45.7445 8.83667 46.0085 9.89267 46.0085 11.11C46.0085 12.3273 45.7445 13.3907 45.2165 14.3C44.7031 15.1947 43.9991 15.8913 43.1045 16.39C42.2245 16.8887 41.2051 17.138 40.0465 17.138ZM33.5345 21.252V5.236H36.1525V8.008L36.0645 11.132L36.2845 14.256V21.252H33.5345ZM39.7385 14.784C40.3985 14.784 40.9851 14.6373 41.4985 14.344C42.0265 14.0507 42.4445 13.6253 42.7525 13.068C43.0605 12.5107 43.2145 11.858 43.2145 11.11C43.2145 10.3473 43.0605 9.69467 42.7525 9.152C42.4445 8.59467 42.0265 8.16933 41.4985 7.876C40.9851 7.58267 40.3985 7.436 39.7385 7.436C39.0785 7.436 38.4845 7.58267 37.9565 7.876C37.4285 8.16933 37.0105 8.59467 36.7025 9.152C36.3945 9.69467 36.2405 10.3473 36.2405 11.11C36.2405 11.858 36.3945 12.5107 36.7025 13.068C37.0105 13.6253 37.4285 14.0507 37.9565 14.344C38.4845 14.6373 39.0785 14.784 39.7385 14.784ZM52.2465 17.138C51.2638 17.138 50.3178 17.0133 49.4085 16.764C48.5138 16.5 47.8025 16.1847 47.2745 15.818L48.3305 13.728C48.8585 14.0653 49.4892 14.344 50.2225 14.564C50.9558 14.784 51.6892 14.894 52.4225 14.894C53.2878 14.894 53.9112 14.7767 54.2925 14.542C54.6885 14.3073 54.8865 13.992 54.8865 13.596C54.8865 13.2733 54.7545 13.0313 54.4905 12.87C54.2265 12.694 53.8818 12.562 53.4565 12.474C53.0312 12.386 52.5545 12.3053 52.0265 12.232C51.5132 12.1587 50.9925 12.0633 50.4645 11.946C49.9512 11.814 49.4818 11.6307 49.0565 11.396C48.6312 11.1467 48.2865 10.8167 48.0225 10.406C47.7585 9.99533 47.6265 9.45267 47.6265 8.778C47.6265 8.03 47.8392 7.38467 48.2645 6.842C48.6898 6.28467 49.2838 5.85933 50.0465 5.566C50.8238 5.258 51.7405 5.104 52.7965 5.104C53.5885 5.104 54.3878 5.192 55.1945 5.368C56.0012 5.544 56.6685 5.79333 57.1965 6.116L56.1405 8.206C55.5832 7.86867 55.0185 7.64133 54.4465 7.524C53.8892 7.392 53.3318 7.326 52.7745 7.326C51.9385 7.326 51.3152 7.45067 50.9045 7.7C50.5085 7.94933 50.3105 8.26467 50.3105 8.646C50.3105 8.998 50.4425 9.262 50.7065 9.438C50.9705 9.614 51.3152 9.75333 51.7405 9.856C52.1658 9.95867 52.6352 10.0467 53.1485 10.12C53.6765 10.1787 54.1972 10.274 54.7105 10.406C55.2238 10.538 55.6932 10.7213 56.1185 10.956C56.5585 11.176 56.9105 11.4913 57.1745 11.902C57.4385 12.3127 57.5705 12.848 57.5705 13.508C57.5705 14.2413 57.3505 14.8793 56.9105 15.422C56.4852 15.9647 55.8765 16.39 55.0845 16.698C54.2925 16.9913 53.3465 17.138 52.2465 17.138ZM69.4068 16.984V4.004H64.3028V1.584H77.3708V4.004H72.2668V16.984H69.4068ZM78.9739 16.984V5.236H81.5919V8.47L81.2839 7.524C81.6359 6.732 82.1859 6.13067 82.9339 5.72C83.6966 5.30933 84.6426 5.104 85.7719 5.104V7.722C85.6546 7.69267 85.5446 7.678 85.4419 7.678C85.3393 7.66333 85.2366 7.656 85.1339 7.656C84.0926 7.656 83.2639 7.964 82.6479 8.58C82.0319 9.18133 81.7239 10.0833 81.7239 11.286V16.984H78.9739ZM94.5049 16.984V14.608L94.3509 14.102V9.944C94.3509 9.13733 94.1089 8.514 93.6249 8.074C93.1409 7.61933 92.4076 7.392 91.4249 7.392C90.7649 7.392 90.1122 7.49467 89.4669 7.7C88.8362 7.90533 88.3009 8.19133 87.8609 8.558L86.7829 6.556C87.4136 6.072 88.1616 5.71267 89.0269 5.478C89.9069 5.22867 90.8162 5.104 91.7549 5.104C93.4562 5.104 94.7689 5.51467 95.6929 6.336C96.6316 7.14267 97.1009 8.39667 97.1009 10.098V16.984H94.5049ZM90.8089 17.138C89.9289 17.138 89.1589 16.9913 88.4989 16.698C87.8389 16.39 87.3256 15.972 86.9589 15.444C86.6069 14.9013 86.4309 14.2927 86.4309 13.618C86.4309 12.958 86.5849 12.364 86.8929 11.836C87.2156 11.308 87.7362 10.89 88.4549 10.582C89.1736 10.274 90.1269 10.12 91.3149 10.12H94.7249V11.946H91.5129C90.5742 11.946 89.9436 12.1 89.6209 12.408C89.2982 12.7013 89.1369 13.068 89.1369 13.508C89.1369 14.0067 89.3349 14.4027 89.7309 14.696C90.1269 14.9893 90.6769 15.136 91.3809 15.136C92.0556 15.136 92.6569 14.982 93.1849 14.674C93.7276 14.366 94.1162 13.9113 94.3509 13.31L94.8129 14.96C94.5489 15.6493 94.0722 16.1847 93.3829 16.566C92.7082 16.9473 91.8502 17.138 90.8089 17.138ZM107.296 5.104C108.235 5.104 109.071 5.28733 109.804 5.654C110.552 6.02067 111.139 6.58533 111.564 7.348C111.99 8.096 112.202 9.064 112.202 10.252V16.984H109.452V10.604C109.452 9.56267 109.203 8.78533 108.704 8.272C108.22 7.75867 107.538 7.502 106.658 7.502C106.013 7.502 105.441 7.634 104.942 7.898C104.444 8.162 104.055 8.558 103.776 9.086C103.512 9.59933 103.38 10.252 103.38 11.044V16.984H100.63V5.236H103.248V8.404L102.786 7.436C103.197 6.688 103.791 6.116 104.568 5.72C105.36 5.30933 106.27 5.104 107.296 5.104ZM119.321 17.138C118.338 17.138 117.392 17.0133 116.483 16.764C115.588 16.5 114.877 16.1847 114.349 15.818L115.405 13.728C115.933 14.0653 116.563 14.344 117.297 14.564C118.03 14.784 118.763 14.894 119.497 14.894C120.362 14.894 120.985 14.7767 121.367 14.542C121.763 14.3073 121.961 13.992 121.961 13.596C121.961 13.2733 121.829 13.0313 121.565 12.87C121.301 12.694 120.956 12.562 120.531 12.474C120.105 12.386 119.629 12.3053 119.101 12.232C118.587 12.1587 118.067 12.0633 117.539 11.946C117.025 11.814 116.556 11.6307 116.131 11.396C115.705 11.1467 115.361 10.8167 115.097 10.406C114.833 9.99533 114.701 9.45267 114.701 8.778C114.701 8.03 114.913 7.38467 115.339 6.842C115.764 6.28467 116.358 5.85933 117.121 5.566C117.898 5.258 118.815 5.104 119.871 5.104C120.663 5.104 121.462 5.192 122.269 5.368C123.075 5.544 123.743 5.79333 124.271 6.116L123.215 8.206C122.657 7.86867 122.093 7.64133 121.521 7.524C120.963 7.392 120.406 7.326 119.849 7.326C119.013 7.326 118.389 7.45067 117.979 7.7C117.583 7.94933 117.385 8.26467 117.385 8.646C117.385 8.998 117.517 9.262 117.781 9.438C118.045 9.614 118.389 9.75333 118.815 9.856C119.24 9.95867 119.709 10.0467 120.223 10.12C120.751 10.1787 121.271 10.274 121.785 10.406C122.298 10.538 122.767 10.7213 123.193 10.956C123.633 11.176 123.985 11.4913 124.249 11.902C124.513 12.3127 124.645 12.848 124.645 13.508C124.645 14.2413 124.425 14.8793 123.985 15.422C123.559 15.9647 122.951 16.39 122.159 16.698C121.367 16.9913 120.421 17.138 119.321 17.138ZM127.387 16.984V4.576C127.387 3.344 127.746 2.36133 128.465 1.628C129.198 0.880001 130.24 0.506001 131.589 0.506001C132.073 0.506001 132.528 0.557334 132.953 0.66C133.393 0.762667 133.76 0.924001 134.053 1.144L133.305 3.212C133.1 3.05067 132.865 2.93333 132.601 2.86C132.337 2.772 132.066 2.728 131.787 2.728C131.215 2.728 130.782 2.88933 130.489 3.212C130.196 3.52 130.049 3.98933 130.049 4.62V5.94L130.137 7.172V16.984H127.387ZM125.451 7.524V5.324H133.283V7.524H125.451ZM140.484 17.138C139.179 17.138 138.035 16.8813 137.052 16.368C136.084 15.84 135.329 15.1213 134.786 14.212C134.258 13.3027 133.994 12.2687 133.994 11.11C133.994 9.93667 134.251 8.90267 134.764 8.008C135.292 7.09867 136.011 6.38733 136.92 5.874C137.844 5.36067 138.893 5.104 140.066 5.104C141.21 5.104 142.23 5.35333 143.124 5.852C144.019 6.35067 144.723 7.05467 145.236 7.964C145.75 8.87333 146.006 9.944 146.006 11.176C146.006 11.2933 145.999 11.4253 145.984 11.572C145.984 11.7187 145.977 11.858 145.962 11.99H136.172V10.164H144.51L143.432 10.736C143.447 10.0613 143.308 9.46733 143.014 8.954C142.721 8.44067 142.318 8.03733 141.804 7.744C141.306 7.45067 140.726 7.304 140.066 7.304C139.392 7.304 138.798 7.45067 138.284 7.744C137.786 8.03733 137.39 8.448 137.096 8.976C136.818 9.48933 136.678 10.098 136.678 10.802V11.242C136.678 11.946 136.84 12.5693 137.162 13.112C137.485 13.6547 137.94 14.0727 138.526 14.366C139.113 14.6593 139.788 14.806 140.55 14.806C141.21 14.806 141.804 14.7033 142.332 14.498C142.86 14.2927 143.33 13.97 143.74 13.53L145.214 15.224C144.686 15.84 144.019 16.3167 143.212 16.654C142.42 16.9767 141.511 17.138 140.484 17.138Z" fill="#0B132A"/>
<path d="M148.648 16.984V5.236H151.266V8.47L150.958 7.524C151.31 6.732 151.86 6.13067 152.608 5.72C153.37 5.30933 154.316 5.104 155.446 5.104V7.722C155.328 7.69267 155.218 7.678 155.116 7.678C155.013 7.66333 154.91 7.656 154.808 7.656C153.766 7.656 152.938 7.964 152.322 8.58C151.706 9.18133 151.398 10.0833 151.398 11.286V16.984H148.648Z" fill="#252C32"/>
<path d="M166.848 8.668H174.526V11.088H166.848V8.668ZM167.09 16.984H164.23V1.584H175.472V3.982H167.09V16.984ZM184.825 16.984V14.608L184.671 14.102V9.944C184.671 9.13733 184.429 8.514 183.945 8.074C183.461 7.61933 182.728 7.392 181.745 7.392C181.085 7.392 180.433 7.49467 179.787 7.7C179.157 7.90533 178.621 8.19133 178.181 8.558L177.103 6.556C177.734 6.072 178.482 5.71267 179.347 5.478C180.227 5.22867 181.137 5.104 182.075 5.104C183.777 5.104 185.089 5.51467 186.013 6.336C186.952 7.14267 187.421 8.39667 187.421 10.098V16.984H184.825ZM181.129 17.138C180.249 17.138 179.479 16.9913 178.819 16.698C178.159 16.39 177.646 15.972 177.279 15.444C176.927 14.9013 176.751 14.2927 176.751 13.618C176.751 12.958 176.905 12.364 177.213 11.836C177.536 11.308 178.057 10.89 178.775 10.582C179.494 10.274 180.447 10.12 181.635 10.12H185.045V11.946H181.833C180.895 11.946 180.264 12.1 179.941 12.408C179.619 12.7013 179.457 13.068 179.457 13.508C179.457 14.0067 179.655 14.4027 180.051 14.696C180.447 14.9893 180.997 15.136 181.701 15.136C182.376 15.136 182.977 14.982 183.505 14.674C184.048 14.366 184.437 13.9113 184.671 13.31L185.133 14.96C184.869 15.6493 184.393 16.1847 183.703 16.566C183.029 16.9473 182.171 17.138 181.129 17.138ZM190.95 16.984V5.236H193.7V16.984H190.95ZM192.336 3.3C191.823 3.3 191.398 3.13867 191.06 2.816C190.738 2.49333 190.576 2.10467 190.576 1.65C190.576 1.18067 190.738 0.792 191.06 0.484C191.398 0.161334 191.823 8.34465e-07 192.336 8.34465e-07C192.85 8.34465e-07 193.268 0.154001 193.59 0.462C193.928 0.755334 194.096 1.12933 194.096 1.584C194.096 2.068 193.935 2.47867 193.612 2.816C193.29 3.13867 192.864 3.3 192.336 3.3ZM197.31 16.984V0.66H200.06V16.984H197.31ZM209.191 17.138C207.886 17.138 206.742 16.8813 205.759 16.368C204.791 15.84 204.036 15.1213 203.493 14.212C202.965 13.3027 202.701 12.2687 202.701 11.11C202.701 9.93667 202.958 8.90267 203.471 8.008C203.999 7.09867 204.718 6.38733 205.627 5.874C206.551 5.36067 207.6 5.104 208.773 5.104C209.917 5.104 210.937 5.35333 211.831 5.852C212.726 6.35067 213.43 7.05467 213.943 7.964C214.457 8.87333 214.713 9.944 214.713 11.176C214.713 11.2933 214.706 11.4253 214.691 11.572C214.691 11.7187 214.684 11.858 214.669 11.99H204.879V10.164H213.217L212.139 10.736C212.154 10.0613 212.015 9.46733 211.721 8.954C211.428 8.44067 211.025 8.03733 210.511 7.744C210.013 7.45067 209.433 7.304 208.773 7.304C208.099 7.304 207.505 7.45067 206.991 7.744C206.493 8.03733 206.097 8.448 205.803 8.976C205.525 9.48933 205.385 10.098 205.385 10.802V11.242C205.385 11.946 205.547 12.5693 205.869 13.112C206.192 13.6547 206.647 14.0727 207.233 14.366C207.82 14.6593 208.495 14.806 209.257 14.806C209.917 14.806 210.511 14.7033 211.039 14.498C211.567 14.2927 212.037 13.97 212.447 13.53L213.921 15.224C213.393 15.84 212.726 16.3167 211.919 16.654C211.127 16.9767 210.218 17.138 209.191 17.138ZM222.327 17.138C221.197 17.138 220.178 16.8887 219.269 16.39C218.374 15.8767 217.67 15.1727 217.157 14.278C216.643 13.3833 216.387 12.3273 216.387 11.11C216.387 9.89267 216.643 8.83667 217.157 7.942C217.67 7.04733 218.374 6.35067 219.269 5.852C220.178 5.35333 221.197 5.104 222.327 5.104C223.309 5.104 224.189 5.324 224.967 5.764C225.744 6.18933 226.36 6.842 226.815 7.722C227.269 8.602 227.497 9.73133 227.497 11.11C227.497 12.474 227.277 13.6033 226.837 14.498C226.397 15.378 225.788 16.038 225.011 16.478C224.233 16.918 223.339 17.138 222.327 17.138ZM222.657 14.784C223.317 14.784 223.903 14.6373 224.417 14.344C224.945 14.0507 225.363 13.6253 225.671 13.068C225.993 12.5107 226.155 11.858 226.155 11.11C226.155 10.3473 225.993 9.69467 225.671 9.152C225.363 8.59467 224.945 8.16933 224.417 7.876C223.903 7.58267 223.317 7.436 222.657 7.436C221.997 7.436 221.403 7.58267 220.875 7.876C220.361 8.16933 219.943 8.59467 219.621 9.152C219.313 9.69467 219.159 10.3473 219.159 11.11C219.159 11.858 219.313 12.5107 219.621 13.068C219.943 13.6253 220.361 14.0507 220.875 14.344C221.403 14.6373 221.997 14.784 222.657 14.784ZM226.221 16.984V14.212L226.331 11.088L226.111 7.964V0.66H228.839V16.984H226.221Z" fill="#D00000"/>
</svg>
