<svg width="247" height="21" viewBox="0 0 247 21" fill="none" xmlns="http://www.w3.org/2000/svg">
<path d="M6.05024 16.478V10.384L6.68824 12.144L0.000242176 1.078H3.05824L8.42624 9.988H6.71024L12.1222 1.078H14.9382L8.25024 12.144L8.91024 10.384V16.478H6.05024ZM20.7586 16.632C19.4533 16.632 18.3093 16.3753 17.3266 15.862C16.3586 15.334 15.6033 14.6153 15.0606 13.706C14.5326 12.7967 14.2686 11.7627 14.2686 10.604C14.2686 9.43066 14.5253 8.39666 15.0386 7.502C15.5666 6.59266 16.2853 5.88133 17.1946 5.368C18.1186 4.85466 19.1673 4.598 20.3406 4.598C21.4846 4.598 22.504 4.84733 23.3986 5.346C24.2933 5.84466 24.9973 6.54866 25.5106 7.458C26.024 8.36733 26.2806 9.438 26.2806 10.67C26.2806 10.7873 26.2733 10.9193 26.2586 11.066C26.2586 11.2127 26.2513 11.352 26.2366 11.484H16.4466V9.658H24.7846L23.7066 10.23C23.7213 9.55533 23.582 8.96133 23.2886 8.448C22.9953 7.93466 22.592 7.53133 22.0786 7.238C21.58 6.94466 21.0006 6.798 20.3406 6.798C19.666 6.798 19.072 6.94466 18.5586 7.238C18.06 7.53133 17.664 7.942 17.3706 8.47C17.092 8.98333 16.9526 9.592 16.9526 10.296V10.736C16.9526 11.44 17.114 12.0633 17.4366 12.606C17.7593 13.1487 18.214 13.5667 18.8006 13.86C19.3873 14.1533 20.062 14.3 20.8246 14.3C21.4846 14.3 22.0786 14.1973 22.6066 13.992C23.1346 13.7867 23.604 13.464 24.0146 13.024L25.4886 14.718C24.9606 15.334 24.2933 15.8107 23.4866 16.148C22.6946 16.4707 21.7853 16.632 20.7586 16.632ZM35.8379 16.478V14.102L35.6839 13.596V9.438C35.6839 8.63133 35.4419 8.008 34.9579 7.568C34.4739 7.11333 33.7406 6.886 32.7579 6.886C32.0979 6.886 31.4452 6.98866 30.7999 7.194C30.1692 7.39933 29.6339 7.68533 29.1939 8.052L28.1159 6.05C28.7466 5.566 29.4946 5.20666 30.3599 4.972C31.2399 4.72266 32.1492 4.598 33.0879 4.598C34.7892 4.598 36.1019 5.00866 37.0259 5.83C37.9646 6.63666 38.4339 7.89066 38.4339 9.592V16.478H35.8379ZM32.1419 16.632C31.2619 16.632 30.4919 16.4853 29.8319 16.192C29.1719 15.884 28.6586 15.466 28.2919 14.938C27.9399 14.3953 27.7639 13.7867 27.7639 13.112C27.7639 12.452 27.9179 11.858 28.2259 11.33C28.5486 10.802 29.0692 10.384 29.7879 10.076C30.5066 9.768 31.4599 9.614 32.6479 9.614H36.0579V11.44H32.8459C31.9072 11.44 31.2766 11.594 30.9539 11.902C30.6312 12.1953 30.4699 12.562 30.4699 13.002C30.4699 13.5007 30.6679 13.8967 31.0639 14.19C31.4599 14.4833 32.0099 14.63 32.7139 14.63C33.3886 14.63 33.9899 14.476 34.5179 14.168C35.0606 13.86 35.4492 13.4053 35.6839 12.804L36.1459 14.454C35.8819 15.1433 35.4052 15.6787 34.7159 16.06C34.0412 16.4413 33.1832 16.632 32.1419 16.632ZM42.7163 20.9C42.1443 20.9 41.5723 20.8047 41.0003 20.614C40.4283 20.4233 39.9517 20.1593 39.5703 19.822L40.6703 17.798C40.949 18.0473 41.2643 18.2453 41.6163 18.392C41.9683 18.5387 42.3277 18.612 42.6943 18.612C43.193 18.612 43.5963 18.4873 43.9043 18.238C44.2123 17.9887 44.4983 17.5707 44.7623 16.984L45.4443 15.444L45.6643 15.114L50.1083 4.73H52.7483L47.2483 17.424C46.8817 18.304 46.471 19.0007 46.0163 19.514C45.5763 20.0273 45.0777 20.3867 44.5203 20.592C43.9777 20.7973 43.3763 20.9 42.7163 20.9ZM45.1363 16.896L39.8343 4.73H42.6943L47.0063 14.872L45.1363 16.896ZM63.9352 16.478V3.498H58.8312V1.078H71.8992V3.498H66.7952V16.478H63.9352ZM73.5022 16.478V4.73H76.1202V7.964L75.8122 7.018C76.1642 6.226 76.7142 5.62466 77.4622 5.214C78.2249 4.80333 79.1709 4.598 80.3002 4.598V7.216C80.1829 7.18666 80.0729 7.172 79.9702 7.172C79.8676 7.15733 79.7649 7.15 79.6622 7.15C78.6209 7.15 77.7922 7.458 77.1762 8.074C76.5602 8.67533 76.2522 9.57733 76.2522 10.78V16.478H73.5022ZM89.0332 16.478V14.102L88.8792 13.596V9.438C88.8792 8.63133 88.6372 8.008 88.1532 7.568C87.6692 7.11333 86.9359 6.886 85.9532 6.886C85.2932 6.886 84.6405 6.98866 83.9952 7.194C83.3645 7.39933 82.8292 7.68533 82.3892 8.052L81.3112 6.05C81.9419 5.566 82.6899 5.20666 83.5552 4.972C84.4352 4.72266 85.3445 4.598 86.2832 4.598C87.9845 4.598 89.2972 5.00866 90.2212 5.83C91.1599 6.63666 91.6292 7.89066 91.6292 9.592V16.478H89.0332ZM85.3372 16.632C84.4572 16.632 83.6872 16.4853 83.0272 16.192C82.3672 15.884 81.8539 15.466 81.4872 14.938C81.1352 14.3953 80.9592 13.7867 80.9592 13.112C80.9592 12.452 81.1132 11.858 81.4212 11.33C81.7439 10.802 82.2645 10.384 82.9832 10.076C83.7019 9.768 84.6552 9.614 85.8432 9.614H89.2532V11.44H86.0412C85.1025 11.44 84.4719 11.594 84.1492 11.902C83.8265 12.1953 83.6652 12.562 83.6652 13.002C83.6652 13.5007 83.8632 13.8967 84.2592 14.19C84.6552 14.4833 85.2052 14.63 85.9092 14.63C86.5839 14.63 87.1852 14.476 87.7132 14.168C88.2559 13.86 88.6445 13.4053 88.8792 12.804L89.3412 14.454C89.0772 15.1433 88.6005 15.6787 87.9112 16.06C87.2365 16.4413 86.3785 16.632 85.3372 16.632ZM101.824 4.598C102.763 4.598 103.599 4.78133 104.332 5.148C105.08 5.51466 105.667 6.07933 106.092 6.842C106.518 7.59 106.73 8.558 106.73 9.746V16.478H103.98V10.098C103.98 9.05666 103.731 8.27933 103.232 7.766C102.748 7.25266 102.066 6.996 101.186 6.996C100.541 6.996 99.9692 7.128 99.4705 7.392C98.9718 7.656 98.5832 8.052 98.3045 8.58C98.0405 9.09333 97.9085 9.746 97.9085 10.538V16.478H95.1585V4.73H97.7765V7.898L97.3145 6.93C97.7252 6.182 98.3192 5.61 99.0965 5.214C99.8885 4.80333 100.798 4.598 101.824 4.598ZM113.849 16.632C112.866 16.632 111.92 16.5073 111.011 16.258C110.116 15.994 109.405 15.6787 108.877 15.312L109.933 13.222C110.461 13.5593 111.092 13.838 111.825 14.058C112.558 14.278 113.292 14.388 114.025 14.388C114.89 14.388 115.514 14.2707 115.895 14.036C116.291 13.8013 116.489 13.486 116.489 13.09C116.489 12.7673 116.357 12.5253 116.093 12.364C115.829 12.188 115.484 12.056 115.059 11.968C114.634 11.88 114.157 11.7993 113.629 11.726C113.116 11.6527 112.595 11.5573 112.067 11.44C111.554 11.308 111.084 11.1247 110.659 10.89C110.234 10.6407 109.889 10.3107 109.625 9.9C109.361 9.48933 109.229 8.94666 109.229 8.272C109.229 7.524 109.442 6.87866 109.867 6.336C110.292 5.77866 110.886 5.35333 111.649 5.06C112.426 4.752 113.343 4.598 114.399 4.598C115.191 4.598 115.99 4.686 116.797 4.862C117.604 5.038 118.271 5.28733 118.799 5.61L117.743 7.7C117.186 7.36266 116.621 7.13533 116.049 7.018C115.492 6.886 114.934 6.82 114.377 6.82C113.541 6.82 112.918 6.94466 112.507 7.194C112.111 7.44333 111.913 7.75866 111.913 8.14C111.913 8.492 112.045 8.756 112.309 8.932C112.573 9.108 112.918 9.24733 113.343 9.35C113.768 9.45266 114.238 9.54066 114.751 9.614C115.279 9.67266 115.8 9.768 116.313 9.9C116.826 10.032 117.296 10.2153 117.721 10.45C118.161 10.67 118.513 10.9853 118.777 11.396C119.041 11.8067 119.173 12.342 119.173 13.002C119.173 13.7353 118.953 14.3733 118.513 14.916C118.088 15.4587 117.479 15.884 116.687 16.192C115.895 16.4853 114.949 16.632 113.849 16.632ZM121.915 16.478V4.07C121.915 2.838 122.275 1.85533 122.993 1.122C123.727 0.373997 124.768 -3.45707e-06 126.117 -3.45707e-06C126.601 -3.45707e-06 127.056 0.0513297 127.481 0.153996C127.921 0.256663 128.288 0.417996 128.581 0.637996L127.833 2.706C127.628 2.54466 127.393 2.42733 127.129 2.354C126.865 2.266 126.594 2.222 126.315 2.222C125.743 2.222 125.311 2.38333 125.017 2.706C124.724 3.014 124.577 3.48333 124.577 4.114V5.434L124.665 6.666V16.478H121.915ZM119.979 7.018V4.818H127.811V7.018H119.979ZM135.013 16.632C133.707 16.632 132.563 16.3753 131.581 15.862C130.613 15.334 129.857 14.6153 129.315 13.706C128.787 12.7967 128.523 11.7627 128.523 10.604C128.523 9.43066 128.779 8.39666 129.293 7.502C129.821 6.59266 130.539 5.88133 131.449 5.368C132.373 4.85466 133.421 4.598 134.595 4.598C135.739 4.598 136.758 4.84733 137.653 5.346C138.547 5.84466 139.251 6.54866 139.765 7.458C140.278 8.36733 140.535 9.438 140.535 10.67C140.535 10.7873 140.527 10.9193 140.513 11.066C140.513 11.2127 140.505 11.352 140.491 11.484H130.701V9.658H139.039L137.961 10.23C137.975 9.55533 137.836 8.96133 137.543 8.448C137.249 7.93466 136.846 7.53133 136.333 7.238C135.834 6.94466 135.255 6.798 134.595 6.798C133.92 6.798 133.326 6.94466 132.813 7.238C132.314 7.53133 131.918 7.942 131.625 8.47C131.346 8.98333 131.207 9.592 131.207 10.296V10.736C131.207 11.44 131.368 12.0633 131.691 12.606C132.013 13.1487 132.468 13.5667 133.055 13.86C133.641 14.1533 134.316 14.3 135.079 14.3C135.739 14.3 136.333 14.1973 136.861 13.992C137.389 13.7867 137.858 13.464 138.269 13.024L139.743 14.718C139.215 15.334 138.547 15.8107 137.741 16.148C136.949 16.4707 136.039 16.632 135.013 16.632ZM143.176 16.478V4.73H145.794V7.964L145.486 7.018C145.838 6.226 146.388 5.62466 147.136 5.214C147.899 4.80333 148.845 4.598 149.974 4.598V7.216C149.857 7.18666 149.747 7.172 149.644 7.172C149.541 7.15733 149.439 7.15 149.336 7.15C148.295 7.15 147.466 7.458 146.85 8.074C146.234 8.67533 145.926 9.57733 145.926 10.78V16.478H143.176Z" fill="#0B132A"/>
<path d="M163.532 16.698C162.33 16.698 161.178 16.5293 160.078 16.192C158.978 15.84 158.106 15.3927 157.46 14.85L158.45 12.628C159.066 13.112 159.829 13.5153 160.738 13.838C161.648 14.1607 162.579 14.322 163.532 14.322C164.339 14.322 164.992 14.234 165.49 14.058C165.989 13.882 166.356 13.6473 166.59 13.354C166.825 13.046 166.942 12.7013 166.942 12.32C166.942 11.8507 166.774 11.4767 166.436 11.198C166.099 10.9047 165.659 10.6773 165.116 10.516C164.588 10.34 163.994 10.1787 163.334 10.032C162.689 9.88533 162.036 9.71666 161.376 9.526C160.731 9.32066 160.137 9.064 159.594 8.756C159.066 8.43333 158.634 8.008 158.296 7.48C157.959 6.952 157.79 6.27733 157.79 5.456C157.79 4.62 158.01 3.85733 158.45 3.168C158.905 2.464 159.587 1.90666 160.496 1.496C161.42 1.07066 162.586 0.857996 163.994 0.857996C164.918 0.857996 165.835 0.97533 166.744 1.21C167.654 1.44466 168.446 1.782 169.12 2.222L168.218 4.444C167.529 4.03333 166.818 3.73266 166.084 3.542C165.351 3.33666 164.647 3.234 163.972 3.234C163.18 3.234 162.535 3.32933 162.036 3.52C161.552 3.71066 161.193 3.96 160.958 4.268C160.738 4.576 160.628 4.928 160.628 5.324C160.628 5.79333 160.79 6.17466 161.112 6.468C161.45 6.74666 161.882 6.96666 162.41 7.128C162.953 7.28933 163.554 7.45066 164.214 7.612C164.874 7.75866 165.527 7.92733 166.172 8.118C166.832 8.30866 167.426 8.558 167.954 8.866C168.497 9.174 168.93 9.592 169.252 10.12C169.59 10.648 169.758 11.3153 169.758 12.122C169.758 12.9433 169.531 13.706 169.076 14.41C168.636 15.0993 167.954 15.6567 167.03 16.082C166.106 16.4927 164.94 16.698 163.532 16.698ZM177.302 16.632C176.305 16.632 175.425 16.4487 174.662 16.082C173.9 15.7007 173.306 15.1287 172.88 14.366C172.455 13.5887 172.242 12.6133 172.242 11.44V4.73H174.992V11.066C174.992 12.122 175.227 12.914 175.696 13.442C176.18 13.9553 176.862 14.212 177.742 14.212C178.388 14.212 178.945 14.08 179.414 13.816C179.898 13.552 180.272 13.156 180.536 12.628C180.815 12.1 180.954 11.4473 180.954 10.67V4.73H183.704V16.478H181.086V13.31L181.548 14.278C181.152 15.0407 180.573 15.6273 179.81 16.038C179.048 16.434 178.212 16.632 177.302 16.632ZM192.695 16.632C191.463 16.632 190.363 16.3753 189.395 15.862C188.442 15.334 187.694 14.6153 187.151 13.706C186.608 12.7967 186.337 11.7627 186.337 10.604C186.337 9.43066 186.608 8.39666 187.151 7.502C187.694 6.59266 188.442 5.88133 189.395 5.368C190.363 4.85466 191.463 4.598 192.695 4.598C193.839 4.598 194.844 4.83266 195.709 5.302C196.589 5.75666 197.256 6.43133 197.711 7.326L195.599 8.558C195.247 8.00066 194.814 7.59 194.301 7.326C193.802 7.062 193.26 6.93 192.673 6.93C191.998 6.93 191.39 7.07666 190.847 7.37C190.304 7.66333 189.879 8.08866 189.571 8.646C189.263 9.18866 189.109 9.84133 189.109 10.604C189.109 11.3667 189.263 12.0267 189.571 12.584C189.879 13.1267 190.304 13.5447 190.847 13.838C191.39 14.1313 191.998 14.278 192.673 14.278C193.26 14.278 193.802 14.146 194.301 13.882C194.814 13.618 195.247 13.2073 195.599 12.65L197.711 13.882C197.256 14.762 196.589 15.444 195.709 15.928C194.844 16.3973 193.839 16.632 192.695 16.632ZM205.306 16.632C204.074 16.632 202.974 16.3753 202.006 15.862C201.053 15.334 200.305 14.6153 199.762 13.706C199.22 12.7967 198.948 11.7627 198.948 10.604C198.948 9.43066 199.22 8.39666 199.762 7.502C200.305 6.59266 201.053 5.88133 202.006 5.368C202.974 4.85466 204.074 4.598 205.306 4.598C206.45 4.598 207.455 4.83266 208.32 5.302C209.2 5.75666 209.868 6.43133 210.322 7.326L208.21 8.558C207.858 8.00066 207.426 7.59 206.912 7.326C206.414 7.062 205.871 6.93 205.284 6.93C204.61 6.93 204.001 7.07666 203.458 7.37C202.916 7.66333 202.49 8.08866 202.182 8.646C201.874 9.18866 201.72 9.84133 201.72 10.604C201.72 11.3667 201.874 12.0267 202.182 12.584C202.49 13.1267 202.916 13.5447 203.458 13.838C204.001 14.1313 204.61 14.278 205.284 14.278C205.871 14.278 206.414 14.146 206.912 13.882C207.426 13.618 207.858 13.2073 208.21 12.65L210.322 13.882C209.868 14.762 209.2 15.444 208.32 15.928C207.455 16.3973 206.45 16.632 205.306 16.632ZM218.05 16.632C216.744 16.632 215.6 16.3753 214.618 15.862C213.65 15.334 212.894 14.6153 212.352 13.706C211.824 12.7967 211.56 11.7627 211.56 10.604C211.56 9.43066 211.816 8.39666 212.33 7.502C212.858 6.59266 213.576 5.88133 214.486 5.368C215.41 4.85466 216.458 4.598 217.632 4.598C218.776 4.598 219.795 4.84733 220.69 5.346C221.584 5.84466 222.288 6.54866 222.802 7.458C223.315 8.36733 223.572 9.438 223.572 10.67C223.572 10.7873 223.564 10.9193 223.55 11.066C223.55 11.2127 223.542 11.352 223.528 11.484H213.738V9.658H222.076L220.998 10.23C221.012 9.55533 220.873 8.96133 220.58 8.448C220.286 7.93466 219.883 7.53133 219.37 7.238C218.871 6.94466 218.292 6.798 217.632 6.798C216.957 6.798 216.363 6.94466 215.85 7.238C215.351 7.53133 214.955 7.942 214.662 8.47C214.383 8.98333 214.244 9.592 214.244 10.296V10.736C214.244 11.44 214.405 12.0633 214.728 12.606C215.05 13.1487 215.505 13.5667 216.092 13.86C216.678 14.1533 217.353 14.3 218.116 14.3C218.776 14.3 219.37 14.1973 219.898 13.992C220.426 13.7867 220.895 13.464 221.306 13.024L222.78 14.718C222.252 15.334 221.584 15.8107 220.778 16.148C219.986 16.4707 219.076 16.632 218.05 16.632ZM229.843 16.632C228.861 16.632 227.915 16.5073 227.005 16.258C226.111 15.994 225.399 15.6787 224.871 15.312L225.927 13.222C226.455 13.5593 227.086 13.838 227.819 14.058C228.553 14.278 229.286 14.388 230.019 14.388C230.885 14.388 231.508 14.2707 231.889 14.036C232.285 13.8013 232.483 13.486 232.483 13.09C232.483 12.7673 232.351 12.5253 232.087 12.364C231.823 12.188 231.479 12.056 231.053 11.968C230.628 11.88 230.151 11.7993 229.623 11.726C229.11 11.6527 228.589 11.5573 228.061 11.44C227.548 11.308 227.079 11.1247 226.653 10.89C226.228 10.6407 225.883 10.3107 225.619 9.9C225.355 9.48933 225.223 8.94666 225.223 8.272C225.223 7.524 225.436 6.87866 225.861 6.336C226.287 5.77866 226.881 5.35333 227.643 5.06C228.421 4.752 229.337 4.598 230.393 4.598C231.185 4.598 231.985 4.686 232.791 4.862C233.598 5.038 234.265 5.28733 234.793 5.61L233.737 7.7C233.18 7.36266 232.615 7.13533 232.043 7.018C231.486 6.886 230.929 6.82 230.371 6.82C229.535 6.82 228.912 6.94466 228.501 7.194C228.105 7.44333 227.907 7.75866 227.907 8.14C227.907 8.492 228.039 8.756 228.303 8.932C228.567 9.108 228.912 9.24733 229.337 9.35C229.763 9.45266 230.232 9.54066 230.745 9.614C231.273 9.67266 231.794 9.768 232.307 9.9C232.821 10.032 233.29 10.2153 233.715 10.45C234.155 10.67 234.507 10.9853 234.771 11.396C235.035 11.8067 235.167 12.342 235.167 13.002C235.167 13.7353 234.947 14.3733 234.507 14.916C234.082 15.4587 233.473 15.884 232.681 16.192C231.889 16.4853 230.943 16.632 229.843 16.632ZM241.165 16.632C240.183 16.632 239.237 16.5073 238.327 16.258C237.433 15.994 236.721 15.6787 236.193 15.312L237.249 13.222C237.777 13.5593 238.408 13.838 239.141 14.058C239.875 14.278 240.608 14.388 241.341 14.388C242.207 14.388 242.83 14.2707 243.211 14.036C243.607 13.8013 243.805 13.486 243.805 13.09C243.805 12.7673 243.673 12.5253 243.409 12.364C243.145 12.188 242.801 12.056 242.375 11.968C241.95 11.88 241.473 11.7993 240.945 11.726C240.432 11.6527 239.911 11.5573 239.383 11.44C238.87 11.308 238.401 11.1247 237.975 10.89C237.55 10.6407 237.205 10.3107 236.941 9.9C236.677 9.48933 236.545 8.94666 236.545 8.272C236.545 7.524 236.758 6.87866 237.183 6.336C237.609 5.77866 238.203 5.35333 238.965 5.06C239.743 4.752 240.659 4.598 241.715 4.598C242.507 4.598 243.307 4.686 244.113 4.862C244.92 5.038 245.587 5.28733 246.115 5.61L245.059 7.7C244.502 7.36266 243.937 7.13533 243.365 7.018C242.808 6.886 242.251 6.82 241.693 6.82C240.857 6.82 240.234 6.94466 239.823 7.194C239.427 7.44333 239.229 7.75866 239.229 8.14C239.229 8.492 239.361 8.756 239.625 8.932C239.889 9.108 240.234 9.24733 240.659 9.35C241.085 9.45266 241.554 9.54066 242.067 9.614C242.595 9.67266 243.116 9.768 243.629 9.9C244.143 10.032 244.612 10.2153 245.037 10.45C245.477 10.67 245.829 10.9853 246.093 11.396C246.357 11.8067 246.489 12.342 246.489 13.002C246.489 13.7353 246.269 14.3733 245.829 14.916C245.404 15.4587 244.795 15.884 244.003 16.192C243.211 16.4853 242.265 16.632 241.165 16.632Z" fill="#1EC15F"/>
</svg>
