<svg width="18" height="13" viewBox="0 0 18 13" fill="none" xmlns="http://www.w3.org/2000/svg">
<path d="M6.33597 5.13602C7.39197 5.84002 7.91997 6.83202 7.91997 8.11202C7.91997 9.36002 7.53597 10.352 6.76797 11.088C6.03197 11.824 5.08797 12.192 3.93597 12.192C2.81597 12.192 1.87197 11.84 1.10397 11.136C0.367973 10.432 -2.72393e-05 9.52002 -2.72393e-05 8.40002C-2.72393e-05 7.28002 0.351973 6.17602 1.05597 5.08802L4.55997 1.81198e-05H8.49597L6.33597 5.13602ZM15.216 5.13602C16.272 5.84002 16.8 6.83202 16.8 8.11202C16.8 9.36002 16.416 10.352 15.648 11.088C14.912 11.824 13.968 12.192 12.816 12.192C11.696 12.192 10.752 11.84 9.98397 11.136C9.24797 10.432 8.87997 9.52002 8.87997 8.40002C8.87997 7.28002 9.23197 6.17602 9.93597 5.08802L13.44 1.81198e-05H17.376L15.216 5.13602Z" fill="white"/>
</svg>
